<svg width="1001" height="1003" viewBox="0 0 1001 1003" fill="none" xmlns="http://www.w3.org/2000/svg">
<g opacity="0.39">
<path opacity="0.39" d="M178.133 481.112C189.393 481.112 198.521 471.984 198.521 460.724C198.521 449.464 189.393 440.336 178.133 440.336C166.873 440.336 157.745 449.464 157.745 460.724C157.745 471.984 166.873 481.112 178.133 481.112Z" fill="white"/>
<path opacity="0.39" d="M178.133 469.462C182.959 469.462 186.871 465.55 186.871 460.724C186.871 455.898 182.959 451.986 178.133 451.986C173.307 451.986 169.395 455.898 169.395 460.724C169.395 465.55 173.307 469.462 178.133 469.462Z" fill="white"/>
<path opacity="0.39" d="M209.878 431.476L197.266 438.758L197.285 438.79C196.364 437.986 195.393 437.24 194.378 436.558L194.412 436.568L198.181 422.5C198.481 421.381 198.324 420.188 197.744 419.185C197.165 418.182 196.211 417.449 195.092 417.149L185.245 414.511C184.126 414.211 182.934 414.368 181.93 414.948C180.927 415.527 180.195 416.481 179.895 417.6L176.126 431.667H176.147C174.938 431.75 173.736 431.908 172.547 432.141L172.563 432.131L165.282 419.52C164.995 419.023 164.613 418.587 164.158 418.238C163.703 417.888 163.184 417.632 162.629 417.484C162.075 417.335 161.497 417.297 160.928 417.372C160.359 417.447 159.811 417.633 159.314 417.92L150.486 423.02C149.989 423.307 149.553 423.688 149.204 424.143C148.855 424.598 148.598 425.118 148.45 425.672C148.301 426.226 148.263 426.804 148.338 427.373C148.413 427.942 148.599 428.49 148.886 428.987L156.167 441.599L156.183 441.59C155.386 442.504 154.648 443.468 153.971 444.474L153.977 444.454L139.91 440.684C138.791 440.384 137.598 440.542 136.595 441.121C135.592 441.701 134.86 442.655 134.56 443.774L131.921 453.62C131.621 454.739 131.779 455.932 132.358 456.935C132.937 457.939 133.892 458.671 135.011 458.971L149.077 462.74L149.086 462.706C149.169 463.926 149.329 465.139 149.565 466.339L149.547 466.307L136.935 473.588C135.932 474.167 135.199 475.122 134.899 476.241C134.599 477.36 134.756 478.552 135.335 479.556L140.435 488.384C140.722 488.881 141.104 489.317 141.559 489.666C142.014 490.016 142.533 490.272 143.088 490.42C143.642 490.569 144.22 490.607 144.789 490.532C145.358 490.457 145.906 490.271 146.403 489.984L159.014 482.703L158.986 482.655C159.918 483.469 160.902 484.222 161.93 484.91L161.869 484.894L158.1 498.96C157.8 500.079 157.957 501.272 158.536 502.275C159.116 503.279 160.07 504.011 161.189 504.311L171.036 506.949C172.155 507.249 173.347 507.092 174.351 506.512C175.354 505.933 176.086 504.979 176.386 503.86L180.155 489.793L180.081 489.773C181.326 489.691 182.564 489.529 183.787 489.286L183.722 489.324L191.004 501.935C191.291 502.432 191.673 502.868 192.128 503.217C192.583 503.567 193.102 503.823 193.657 503.971C194.211 504.12 194.789 504.158 195.358 504.083C195.927 504.008 196.475 503.822 196.972 503.535L205.8 498.435C206.803 497.856 207.536 496.902 207.836 495.783C208.136 494.664 207.979 493.471 207.4 492.468L200.119 479.856L200.054 479.893C200.876 478.955 201.636 477.964 202.329 476.927L202.309 477.001L216.375 480.771C216.929 480.919 217.507 480.957 218.076 480.882C218.645 480.808 219.194 480.621 219.691 480.334C220.187 480.047 220.623 479.665 220.972 479.21C221.321 478.755 221.578 478.235 221.726 477.681L224.364 467.835C224.513 467.281 224.551 466.703 224.476 466.134C224.401 465.565 224.215 465.016 223.928 464.52C223.641 464.023 223.259 463.587 222.804 463.238C222.349 462.889 221.829 462.632 221.275 462.484L207.2 458.72L207.183 458.781C207.101 457.546 206.941 456.318 206.702 455.104L206.73 455.153L219.342 447.872C220.345 447.293 221.078 446.338 221.378 445.219C221.678 444.1 221.521 442.908 220.942 441.904L215.842 433.076C215.263 432.073 214.309 431.342 213.191 431.042C212.073 430.742 210.881 430.898 209.878 431.476Z" fill="white"/>
</g>
<path opacity="0.39" d="M302.744 274.406C331.213 274.406 354.292 251.327 354.292 222.858C354.292 194.388 331.213 171.31 302.744 171.31C274.275 171.31 251.196 194.388 251.196 222.858C251.196 251.327 274.275 274.406 302.744 274.406Z" fill="white"/>
<path d="M302.036 223.418L329.883 207.236L329.797 237.509L301.95 253.692L302.036 223.418Z" stroke="#1E223B" stroke-width="2" stroke-linecap="round" stroke-linejoin="round"/>
<path d="M275.69 208.208L303.537 192.025L329.883 207.236L302.036 223.418L275.69 208.208Z" stroke="#1E223B" stroke-width="2" stroke-linecap="round" stroke-linejoin="round"/>
<path d="M275.69 208.208L303.537 192.025L329.883 207.236L302.036 223.418L275.69 208.208Z" fill="#028B9E" stroke="#1E223B" stroke-width="2" stroke-linecap="round" stroke-linejoin="round"/>
<path opacity="0.4" d="M302.036 223.418L301.95 253.692L275.604 238.481L275.69 208.208L302.036 223.418Z" fill="#028B9E" stroke="#1E223B" stroke-width="2" stroke-linecap="round" stroke-linejoin="round"/>
<path d="M302.036 223.418L301.95 253.692L275.604 238.481L275.69 208.208L302.036 223.418Z" stroke="#1E223B" stroke-width="2" stroke-linecap="round" stroke-linejoin="round"/>
<path d="M302.744 274.406C331.213 274.406 354.292 251.327 354.292 222.858C354.292 194.388 331.213 171.31 302.744 171.31C274.275 171.31 251.196 194.388 251.196 222.858C251.196 251.327 274.275 274.406 302.744 274.406Z" stroke="#1E223B" stroke-width="2" stroke-linecap="round" stroke-linejoin="round"/>
<g style="mix-blend-mode:multiply" opacity="0.11">
<path d="M661.5 623.737H379.5C369.559 623.737 361.5 631.796 361.5 641.737V843.737C361.5 853.678 369.559 861.737 379.5 861.737H661.5C671.441 861.737 679.5 853.678 679.5 843.737V641.737C679.5 631.796 671.441 623.737 661.5 623.737Z" fill="#161616"/>
<path d="M661.5 623.737H379.5C369.559 623.737 361.5 631.796 361.5 641.737V843.737C361.5 853.678 369.559 861.737 379.5 861.737H661.5C671.441 861.737 679.5 853.678 679.5 843.737V641.737C679.5 631.796 671.441 623.737 661.5 623.737Z" stroke="#1E223B" stroke-miterlimit="10"/>
</g>
<g style="mix-blend-mode:multiply" opacity="0.11">
<path d="M672.5 609.737H368.5C364.634 609.737 361.5 612.871 361.5 616.737C361.5 620.603 364.634 623.737 368.5 623.737H672.5C676.366 623.737 679.5 620.603 679.5 616.737C679.5 612.871 676.366 609.737 672.5 609.737Z" fill="#161616"/>
<path d="M672.5 609.737H368.5C364.634 609.737 361.5 612.871 361.5 616.737C361.5 620.603 364.634 623.737 368.5 623.737H672.5C676.366 623.737 679.5 620.603 679.5 616.737C679.5 612.871 676.366 609.737 672.5 609.737Z" stroke="#1E223B" stroke-miterlimit="10"/>
</g>
<path d="M651.5 615.737H369.5C359.559 615.737 351.5 623.796 351.5 633.737V835.737C351.5 845.678 359.559 853.737 369.5 853.737H651.5C661.441 853.737 669.5 845.678 669.5 835.737V633.737C669.5 623.796 661.441 615.737 651.5 615.737Z" fill="#2F4584"/>
<path d="M651.5 615.737H369.5C359.559 615.737 351.5 623.796 351.5 633.737V829.737C351.5 839.678 359.559 847.737 369.5 847.737H651.5C661.441 847.737 669.5 839.678 669.5 829.737V633.737C669.5 623.796 661.441 615.737 651.5 615.737Z" fill="white"/>
<g style="mix-blend-mode:multiply" opacity="0.11">
<path d="M558 833.566H556.5C554.909 833.566 553.383 834.198 552.257 835.324C551.132 836.449 550.5 837.975 550.5 839.566V846.738C550.5 847.534 550.184 848.297 549.621 848.86C549.059 849.422 548.296 849.738 547.5 849.738C546.704 849.738 545.941 849.422 545.379 848.86C544.816 848.297 544.5 847.534 544.5 846.738V839.566C544.5 837.975 543.868 836.449 542.743 835.324C541.617 834.198 540.091 833.566 538.5 833.566H537C535.409 833.566 533.883 834.198 532.757 835.324C531.632 836.449 531 837.975 531 839.566V846.738C531 847.534 530.684 848.297 530.121 848.86C529.559 849.422 528.796 849.738 528 849.738C527.204 849.738 526.441 849.422 525.879 848.86C525.316 848.297 525 847.534 525 846.738V839.566C525 837.975 524.368 836.449 523.243 835.324C522.117 834.198 520.591 833.566 519 833.566H517.5C515.909 833.566 514.383 834.198 513.257 835.324C512.132 836.449 511.5 837.975 511.5 839.566V846.738C511.5 847.534 511.184 848.297 510.621 848.86C510.059 849.422 509.296 849.738 508.5 849.738C507.704 849.738 506.941 849.422 506.379 848.86C505.816 848.297 505.5 847.534 505.5 846.738V801.738C505.5 800.147 504.868 798.621 503.743 797.496C502.617 796.37 501.091 795.738 499.5 795.738H498C496.409 795.738 494.883 796.37 493.757 797.496C492.632 798.621 492 800.147 492 801.738V880.171L480.492 860.238C480.098 859.555 479.574 858.956 478.949 858.476C478.323 857.995 477.61 857.643 476.848 857.439C476.086 857.234 475.292 857.182 474.51 857.285C473.729 857.388 472.975 857.644 472.292 858.038L470.992 858.788C470.309 859.182 469.71 859.706 469.23 860.332C468.749 860.957 468.397 861.671 468.192 862.432C467.988 863.194 467.936 863.988 468.039 864.77C468.142 865.552 468.398 866.306 468.792 866.988L492.836 908.633C493.719 910.873 495.255 912.795 497.244 914.151C499.234 915.506 501.585 916.232 503.992 916.233H505.992V940.886H502.043V965.752H500.11C498.39 965.752 496.74 966.436 495.524 967.652C494.307 968.868 493.624 970.518 493.624 972.238V1002.5H562.381V972.238C562.381 970.518 561.698 968.868 560.481 967.652C559.265 966.436 557.615 965.752 555.895 965.752H553.952V940.886H550V916.233H552C555.183 916.233 558.235 914.969 560.485 912.719C562.736 910.468 564 907.416 564 904.233V839.566C564 837.975 563.368 836.449 562.243 835.324C561.117 834.198 559.591 833.566 558 833.566Z" fill="#161616"/>
<path d="M558 833.566H556.5C554.909 833.566 553.383 834.198 552.257 835.324C551.132 836.449 550.5 837.975 550.5 839.566V846.738C550.5 847.534 550.184 848.297 549.621 848.86C549.059 849.422 548.296 849.738 547.5 849.738C546.704 849.738 545.941 849.422 545.379 848.86C544.816 848.297 544.5 847.534 544.5 846.738V839.566C544.5 837.975 543.868 836.449 542.743 835.324C541.617 834.198 540.091 833.566 538.5 833.566H537C535.409 833.566 533.883 834.198 532.757 835.324C531.632 836.449 531 837.975 531 839.566V846.738C531 847.534 530.684 848.297 530.121 848.86C529.559 849.422 528.796 849.738 528 849.738C527.204 849.738 526.441 849.422 525.879 848.86C525.316 848.297 525 847.534 525 846.738V839.566C525 837.975 524.368 836.449 523.243 835.324C522.117 834.198 520.591 833.566 519 833.566H517.5C515.909 833.566 514.383 834.198 513.257 835.324C512.132 836.449 511.5 837.975 511.5 839.566V846.738C511.5 847.534 511.184 848.297 510.621 848.86C510.059 849.422 509.296 849.738 508.5 849.738C507.704 849.738 506.941 849.422 506.379 848.86C505.816 848.297 505.5 847.534 505.5 846.738V801.738C505.5 800.147 504.868 798.621 503.743 797.496C502.617 796.37 501.091 795.738 499.5 795.738H498C496.409 795.738 494.883 796.37 493.757 797.496C492.632 798.621 492 800.147 492 801.738V880.171L480.492 860.238C480.098 859.555 479.574 858.956 478.949 858.476C478.323 857.995 477.61 857.643 476.848 857.439C476.086 857.234 475.292 857.182 474.51 857.285C473.729 857.388 472.975 857.644 472.292 858.038L470.992 858.788C470.309 859.182 469.71 859.706 469.23 860.332C468.749 860.957 468.397 861.671 468.192 862.432C467.988 863.194 467.936 863.988 468.039 864.77C468.142 865.552 468.398 866.306 468.792 866.988L492.836 908.633C493.719 910.873 495.255 912.795 497.244 914.151C499.234 915.506 501.585 916.232 503.992 916.233H505.992V940.886H502.043V965.752H500.11C498.39 965.752 496.74 966.436 495.524 967.652C494.307 968.868 493.624 970.518 493.624 972.238V1002.5H562.381V972.238C562.381 970.518 561.698 968.868 560.481 967.652C559.265 966.436 557.615 965.752 555.895 965.752H553.952V940.886H550V916.233H552C555.183 916.233 558.235 914.969 560.485 912.719C562.736 910.468 564 907.416 564 904.233V839.566C564 837.975 563.368 836.449 562.243 835.324C561.117 834.198 559.591 833.566 558 833.566Z" stroke="#1E223B" stroke-miterlimit="10"/>
</g>
<g style="mix-blend-mode:multiply" opacity="0.11">
<path d="M443.064 829.737C446.06 829.736 448.948 828.613 451.159 826.591C453.37 824.568 454.744 821.791 455.011 818.807L477.132 780.492C477.526 779.809 477.782 779.055 477.885 778.274C477.988 777.492 477.936 776.697 477.732 775.936C477.527 775.174 477.175 774.461 476.694 773.835C476.214 773.21 475.615 772.686 474.932 772.292L473.632 771.542C472.949 771.147 472.195 770.892 471.414 770.789C470.632 770.686 469.838 770.738 469.076 770.942C468.314 771.147 467.601 771.499 466.975 771.979C466.35 772.46 465.826 773.059 465.432 773.742L455.057 791.713V715.241C455.057 713.65 454.425 712.123 453.3 710.998C452.174 709.873 450.648 709.241 449.057 709.241H447.557C445.966 709.241 444.44 709.873 443.314 710.998C442.189 712.123 441.557 713.65 441.557 715.241V760.241C441.557 761.037 441.241 761.8 440.678 762.362C440.116 762.925 439.353 763.241 438.557 763.241C437.761 763.241 436.998 762.925 436.436 762.362C435.873 761.8 435.557 761.037 435.557 760.241V706.547C435.557 704.956 434.925 703.429 433.8 702.304C432.674 701.179 431.148 700.547 429.557 700.547H428.057C426.466 700.547 424.94 701.179 423.814 702.304C422.689 703.429 422.057 704.956 422.057 706.547V760.242C422.057 761.038 421.741 761.801 421.178 762.363C420.616 762.926 419.853 763.242 419.057 763.242C418.261 763.242 417.498 762.926 416.936 762.363C416.373 761.801 416.057 761.038 416.057 760.242V715.242C416.057 713.651 415.425 712.124 414.3 710.999C413.174 709.874 411.648 709.242 410.057 709.242H408.557C406.966 709.242 405.44 709.874 404.314 710.999C403.189 712.124 402.557 713.651 402.557 715.242V760.242C402.557 761.038 402.241 761.801 401.678 762.363C401.116 762.926 400.353 763.242 399.557 763.242C398.761 763.242 397.998 762.926 397.436 762.363C396.873 761.801 396.557 761.038 396.557 760.242V729.492C396.557 727.901 395.925 726.374 394.8 725.249C393.674 724.124 392.148 723.492 390.557 723.492H389.057C387.466 723.492 385.94 724.124 384.814 725.249C383.689 726.374 383.057 727.901 383.057 729.492V817.737C383.057 820.919 384.321 823.972 386.572 826.222C388.822 828.473 391.874 829.737 395.057 829.737H397.637V854.39H393.108V879.255H391.165C389.445 879.255 387.795 879.938 386.578 881.155C385.361 882.371 384.678 884.021 384.678 885.742V1002.5H453.436V885.742C453.436 884.021 452.753 882.371 451.536 881.155C450.319 879.938 448.669 879.255 446.949 879.255H445.006V854.39H441.637V829.737H443.064Z" fill="#161616"/>
<path d="M443.064 829.737C446.06 829.736 448.948 828.613 451.159 826.591C453.37 824.568 454.744 821.791 455.011 818.807L477.132 780.492C477.526 779.809 477.782 779.055 477.885 778.274C477.988 777.492 477.936 776.697 477.732 775.936C477.527 775.174 477.175 774.461 476.694 773.835C476.214 773.21 475.615 772.686 474.932 772.292L473.632 771.542C472.949 771.147 472.195 770.892 471.414 770.789C470.632 770.686 469.838 770.738 469.076 770.942C468.314 771.147 467.601 771.499 466.975 771.979C466.35 772.46 465.826 773.059 465.432 773.742L455.057 791.713V715.241C455.057 713.65 454.425 712.123 453.3 710.998C452.174 709.873 450.648 709.241 449.057 709.241H447.557C445.966 709.241 444.44 709.873 443.314 710.998C442.189 712.123 441.557 713.65 441.557 715.241V760.241C441.557 761.037 441.241 761.8 440.678 762.362C440.116 762.925 439.353 763.241 438.557 763.241C437.761 763.241 436.998 762.925 436.436 762.362C435.873 761.8 435.557 761.037 435.557 760.241V706.547C435.557 704.956 434.925 703.429 433.8 702.304C432.674 701.179 431.148 700.547 429.557 700.547H428.057C426.466 700.547 424.94 701.179 423.814 702.304C422.689 703.429 422.057 704.956 422.057 706.547V760.242C422.057 761.038 421.741 761.801 421.178 762.363C420.616 762.926 419.853 763.242 419.057 763.242C418.261 763.242 417.498 762.926 416.936 762.363C416.373 761.801 416.057 761.038 416.057 760.242V715.242C416.057 713.651 415.425 712.124 414.3 710.999C413.174 709.874 411.648 709.242 410.057 709.242H408.557C406.966 709.242 405.44 709.874 404.314 710.999C403.189 712.124 402.557 713.651 402.557 715.242V760.242C402.557 761.038 402.241 761.801 401.678 762.363C401.116 762.926 400.353 763.242 399.557 763.242C398.761 763.242 397.998 762.926 397.436 762.363C396.873 761.801 396.557 761.038 396.557 760.242V729.492C396.557 727.901 395.925 726.374 394.8 725.249C393.674 724.124 392.148 723.492 390.557 723.492H389.057C387.466 723.492 385.94 724.124 384.814 725.249C383.689 726.374 383.057 727.901 383.057 729.492V817.737C383.057 820.919 384.321 823.972 386.572 826.222C388.822 828.473 391.874 829.737 395.057 829.737H397.637V854.39H393.108V879.255H391.165C389.445 879.255 387.795 879.938 386.578 881.155C385.361 882.371 384.678 884.021 384.678 885.742V1002.5H453.436V885.742C453.436 884.021 452.753 882.371 451.536 881.155C450.319 879.938 448.669 879.255 446.949 879.255H445.006V854.39H441.637V829.737H443.064Z" stroke="#1E223B" stroke-miterlimit="10"/>
</g>
<path opacity="0.15" d="M651 633.237H370C367.791 633.237 366 635.028 366 637.237V750.237C366 752.446 367.791 754.237 370 754.237H651C653.209 754.237 655 752.446 655 750.237V637.237C655 635.028 653.209 633.237 651 633.237Z" fill="#1E223B" stroke="#1E223B" stroke-width="2" stroke-miterlimit="11"/>
<path d="M651.5 615.737H369.5C359.559 615.737 351.5 623.796 351.5 633.737V829.737C351.5 839.678 359.559 847.737 369.5 847.737H651.5C661.441 847.737 669.5 839.678 669.5 829.737V633.737C669.5 623.796 661.441 615.737 651.5 615.737Z" stroke="#1E223B" stroke-width="2" stroke-linecap="round" stroke-linejoin="round"/>
<path d="M651.5 615.737H369.5C359.559 615.737 351.5 623.796 351.5 633.737V835.737C351.5 845.678 359.559 853.737 369.5 853.737H651.5C661.441 853.737 669.5 845.678 669.5 835.737V633.737C669.5 623.796 661.441 615.737 651.5 615.737Z" stroke="#1E223B" stroke-width="2" stroke-linecap="round" stroke-linejoin="round"/>
<path d="M651.5 383.737H369.5C359.559 383.737 351.5 391.796 351.5 401.737V597.737C351.5 607.678 359.559 615.737 369.5 615.737H651.5C661.441 615.737 669.5 607.678 669.5 597.737V401.737C669.5 391.796 661.441 383.737 651.5 383.737Z" fill="#2F4584"/>
<path d="M651.5 383.737H369.5C359.559 383.737 351.5 391.796 351.5 401.737V597.737C351.5 607.678 359.559 615.737 369.5 615.737H651.5C661.441 615.737 669.5 607.678 669.5 597.737V401.737C669.5 391.796 661.441 383.737 651.5 383.737Z" stroke="#1E223B" stroke-width="2" stroke-linecap="round" stroke-linejoin="round"/>
<path d="M663.501 597.737V401.737C663.501 395.11 658.128 389.737 651.501 389.737H369.501C362.874 389.737 357.501 395.11 357.501 401.737V597.737C357.501 604.365 362.874 609.737 369.501 609.737H651.501C658.128 609.737 663.501 604.365 663.501 597.737Z" fill="white"/>
<path d="M639.501 585.737V413.737H381.501V585.737H639.501Z" fill="#FF5855" stroke="#1E223B" stroke-miterlimit="10"/>
<path d="M663.501 597.737V401.737C663.501 395.11 658.128 389.737 651.501 389.737H369.501C362.874 389.737 357.501 395.11 357.501 401.737V597.737C357.501 604.365 362.874 609.737 369.501 609.737H651.501C658.128 609.737 663.501 604.365 663.501 597.737Z" stroke="#1E223B" stroke-width="2" stroke-linecap="round" stroke-linejoin="round"/>
<path d="M639.501 585.737V413.737H381.501V585.737H639.501Z" stroke="#1E223B" stroke-width="2" stroke-linecap="round" stroke-linejoin="round"/>
<g opacity="0.1">
<path opacity="0.1" d="M549.25 763.737H471.75C469.403 763.737 467.5 765.64 467.5 767.987V819.487C467.5 821.835 469.403 823.737 471.75 823.737H549.25C551.597 823.737 553.5 821.835 553.5 819.487V767.987C553.5 765.64 551.597 763.737 549.25 763.737Z" fill="#1E223B"/>
</g>
<path d="M549.25 763.737H471.75C469.403 763.737 467.5 765.64 467.5 767.987V819.487C467.5 821.835 469.403 823.737 471.75 823.737H549.25C551.597 823.737 553.5 821.835 553.5 819.487V767.987C553.5 765.64 551.597 763.737 549.25 763.737Z" stroke="#1E223B" stroke-width="2" stroke-linecap="round" stroke-linejoin="round"/>
<path d="M549 845.737H473V853.737H549V845.737Z" fill="#263C72"/>
<path d="M549 845.737H473V853.737H549V845.737Z" stroke="#1E223B" stroke-width="2" stroke-linecap="round" stroke-linejoin="round"/>
<g style="mix-blend-mode:multiply" opacity="0.11">
<path d="M611.5 359.737H423.5C420.186 359.737 417.5 362.424 417.5 365.737V577.737C417.5 581.051 420.186 583.737 423.5 583.737H611.5C614.814 583.737 617.5 581.051 617.5 577.737V365.737C617.5 362.424 614.814 359.737 611.5 359.737Z" fill="#161616"/>
<path d="M611.5 359.737H423.5C420.186 359.737 417.5 362.424 417.5 365.737V577.737C417.5 581.051 420.186 583.737 423.5 583.737H611.5C614.814 583.737 617.5 581.051 617.5 577.737V365.737C617.5 362.424 614.814 359.737 611.5 359.737Z" stroke="#1E223B" stroke-miterlimit="10"/>
</g>
<path d="M606 355.737H418C414.686 355.737 412 358.424 412 361.737V573.737C412 577.051 414.686 579.737 418 579.737H606C609.314 579.737 612 577.051 612 573.737V361.737C612 358.424 609.314 355.737 606 355.737Z" fill="white"/>
<path d="M412 545.737H612V573.737C612 575.329 611.368 576.855 610.243 577.98C609.117 579.105 607.591 579.737 606 579.737H418C416.409 579.737 414.883 579.105 413.757 577.98C412.632 576.855 412 575.329 412 573.737V545.737Z" fill="#EFEFEF"/>
<path d="M606 355.737H418C414.686 355.737 412 358.424 412 361.737V573.737C412 577.051 414.686 579.737 418 579.737H606C609.314 579.737 612 577.051 612 573.737V361.737C612 358.424 609.314 355.737 606 355.737Z" stroke="#1E223B" stroke-width="2" stroke-linecap="round" stroke-linejoin="round"/>
<path d="M417.427 355.737H606.573C607.286 355.737 607.992 355.878 608.65 356.151C609.309 356.423 609.907 356.823 610.411 357.327C610.915 357.831 611.314 358.43 611.587 359.088C611.86 359.747 612 360.453 612 361.165V373.738H412V361.165C412 360.453 412.14 359.747 412.413 359.088C412.685 358.43 413.085 357.831 413.589 357.327C414.093 356.823 414.691 356.423 415.35 356.151C416.008 355.878 416.714 355.737 417.427 355.737V355.737Z" fill="#363D56"/>
<path d="M417.427 355.737H606.573C607.286 355.737 607.992 355.878 608.65 356.151C609.309 356.423 609.907 356.823 610.411 357.327C610.915 357.831 611.314 358.43 611.587 359.088C611.86 359.747 612 360.453 612 361.165V373.738H412V361.165C412 360.453 412.14 359.747 412.413 359.088C412.685 358.43 413.085 357.831 413.589 357.327C414.093 356.823 414.691 356.423 415.35 356.151C416.008 355.878 416.714 355.737 417.427 355.737V355.737Z" stroke="#1E223B" stroke-width="2" stroke-linecap="round" stroke-linejoin="round"/>
<path d="M612 373.737H412V381.737H612V373.737Z" fill="#424960"/>
<path d="M612 373.737H412V381.737H612V373.737Z" stroke="#1E223B" stroke-width="2" stroke-linecap="round" stroke-linejoin="round"/>
<path d="M423.167 367.737C424.824 367.737 426.167 366.394 426.167 364.737C426.167 363.08 424.824 361.737 423.167 361.737C421.51 361.737 420.167 363.08 420.167 364.737C420.167 366.394 421.51 367.737 423.167 367.737Z" fill="#F73E39"/>
<path d="M423.167 367.737C424.824 367.737 426.167 366.394 426.167 364.737C426.167 363.08 424.824 361.737 423.167 361.737C421.51 361.737 420.167 363.08 420.167 364.737C420.167 366.394 421.51 367.737 423.167 367.737Z" stroke="#1E223B" stroke-width="2" stroke-linecap="round" stroke-linejoin="round"/>
<path d="M435.435 367.737C437.092 367.737 438.435 366.394 438.435 364.737C438.435 363.08 437.092 361.737 435.435 361.737C433.778 361.737 432.435 363.08 432.435 364.737C432.435 366.394 433.778 367.737 435.435 367.737Z" fill="#383838"/>
<path d="M435.435 367.737C437.092 367.737 438.435 366.394 438.435 364.737C438.435 363.08 437.092 361.737 435.435 361.737C433.778 361.737 432.435 363.08 432.435 364.737C432.435 366.394 433.778 367.737 435.435 367.737Z" stroke="#1E223B" stroke-width="2" stroke-linecap="round" stroke-linejoin="round"/>
<path d="M446.662 367.737C448.319 367.737 449.662 366.394 449.662 364.737C449.662 363.08 448.319 361.737 446.662 361.737C445.005 361.737 443.662 363.08 443.662 364.737C443.662 366.394 445.005 367.737 446.662 367.737Z" fill="#C6C6C6"/>
<path d="M446.662 367.737C448.319 367.737 449.662 366.394 449.662 364.737C449.662 363.08 448.319 361.737 446.662 361.737C445.005 361.737 443.662 363.08 443.662 364.737C443.662 366.394 445.005 367.737 446.662 367.737Z" stroke="#1E223B" stroke-width="2" stroke-linecap="round" stroke-linejoin="round"/>
<path opacity="0.28" d="M525.5 361.737H463.5C461.843 361.737 460.5 363.08 460.5 364.737C460.5 366.394 461.843 367.737 463.5 367.737H525.5C527.157 367.737 528.5 366.394 528.5 364.737C528.5 363.08 527.157 361.737 525.5 361.737Z" fill="#8289A3"/>
<path d="M178.133 481.112C189.393 481.112 198.521 471.984 198.521 460.724C198.521 449.464 189.393 440.336 178.133 440.336C166.873 440.336 157.745 449.464 157.745 460.724C157.745 471.984 166.873 481.112 178.133 481.112Z" stroke="#1E223B" stroke-width="2" stroke-linecap="round" stroke-linejoin="round"/>
<path d="M178.133 469.462C182.959 469.462 186.871 465.55 186.871 460.724C186.871 455.898 182.959 451.986 178.133 451.986C173.307 451.986 169.395 455.898 169.395 460.724C169.395 465.55 173.307 469.462 178.133 469.462Z" stroke="#1E223B" stroke-width="2" stroke-linecap="round" stroke-linejoin="round"/>
<path d="M209.878 431.476L197.266 438.758L197.285 438.79C196.364 437.986 195.393 437.24 194.378 436.558L194.412 436.568L198.181 422.5C198.481 421.381 198.324 420.188 197.744 419.185C197.165 418.182 196.211 417.449 195.092 417.149L185.245 414.511C184.126 414.211 182.934 414.368 181.93 414.948C180.927 415.527 180.195 416.481 179.895 417.6L176.126 431.667H176.147C174.938 431.75 173.736 431.908 172.547 432.141L172.563 432.131L165.282 419.52C164.995 419.023 164.613 418.587 164.158 418.238C163.703 417.888 163.184 417.632 162.629 417.484C162.075 417.335 161.497 417.297 160.928 417.372C160.359 417.447 159.811 417.633 159.314 417.92L150.486 423.02C149.989 423.307 149.553 423.688 149.204 424.143C148.855 424.598 148.598 425.118 148.45 425.672C148.301 426.226 148.263 426.804 148.338 427.373C148.413 427.942 148.599 428.49 148.886 428.987L156.167 441.599L156.183 441.59C155.386 442.504 154.648 443.468 153.971 444.474L153.977 444.454L139.91 440.684C138.791 440.384 137.598 440.542 136.595 441.121C135.592 441.701 134.86 442.655 134.56 443.774L131.921 453.62C131.621 454.739 131.779 455.932 132.358 456.935C132.937 457.939 133.892 458.671 135.011 458.971L149.077 462.74L149.086 462.706C149.169 463.926 149.329 465.139 149.565 466.339L149.547 466.307L136.935 473.588C135.932 474.167 135.199 475.122 134.899 476.241C134.599 477.36 134.756 478.552 135.335 479.556L140.435 488.384C140.722 488.881 141.104 489.317 141.559 489.666C142.014 490.016 142.533 490.272 143.088 490.42C143.642 490.569 144.22 490.607 144.789 490.532C145.358 490.457 145.906 490.271 146.403 489.984L159.014 482.703L158.986 482.655C159.918 483.469 160.902 484.222 161.93 484.91L161.869 484.894L158.1 498.96C157.8 500.079 157.957 501.272 158.536 502.275C159.116 503.279 160.07 504.011 161.189 504.311L171.036 506.949C172.155 507.249 173.347 507.092 174.351 506.512C175.354 505.933 176.086 504.979 176.386 503.86L180.155 489.793L180.081 489.773C181.326 489.691 182.564 489.529 183.787 489.286L183.722 489.324L191.004 501.935C191.291 502.432 191.673 502.868 192.128 503.217C192.583 503.567 193.102 503.823 193.657 503.971C194.211 504.12 194.789 504.158 195.358 504.083C195.927 504.008 196.475 503.822 196.972 503.535L205.8 498.435C206.803 497.856 207.536 496.902 207.836 495.783C208.136 494.664 207.979 493.471 207.4 492.468L200.119 479.856L200.054 479.893C200.876 478.955 201.636 477.964 202.329 476.927L202.309 477.001L216.375 480.771C216.929 480.919 217.507 480.957 218.076 480.882C218.645 480.808 219.194 480.621 219.691 480.334C220.187 480.047 220.623 479.665 220.972 479.21C221.321 478.755 221.578 478.235 221.726 477.681L224.364 467.835C224.513 467.281 224.551 466.703 224.476 466.134C224.401 465.565 224.215 465.016 223.928 464.52C223.641 464.023 223.259 463.587 222.804 463.238C222.349 462.889 221.829 462.632 221.275 462.484L207.2 458.72L207.183 458.781C207.101 457.546 206.941 456.318 206.702 455.104L206.73 455.153L219.342 447.872C220.345 447.293 221.078 446.338 221.378 445.219C221.678 444.1 221.521 442.908 220.942 441.904L215.842 433.076C215.263 432.073 214.309 431.342 213.191 431.042C212.073 430.742 210.881 430.898 209.878 431.476Z" stroke="#1E223B" stroke-width="2" stroke-linecap="round" stroke-linejoin="round"/>
<g opacity="0.32">
<path opacity="0.32" d="M451.942 423.012C456.206 423.012 459.662 419.556 459.662 415.292C459.662 411.029 456.206 407.572 451.942 407.572C447.678 407.572 444.222 411.029 444.222 415.292C444.222 419.556 447.678 423.012 451.942 423.012Z" stroke="#1E223B" stroke-linecap="round" stroke-linejoin="round"/>
<path opacity="0.32" d="M451.942 418.601C453.769 418.601 455.251 417.12 455.251 415.292C455.251 413.465 453.769 411.983 451.942 411.983C450.114 411.983 448.633 413.465 448.633 415.292C448.633 417.12 450.114 418.601 451.942 418.601Z" stroke="#1E223B" stroke-linecap="round" stroke-linejoin="round"/>
<path opacity="0.32" d="M468.274 415.961L462.947 414.534V414.548C462.916 414.086 462.856 413.626 462.767 413.172L462.773 413.183L467.549 410.426C467.928 410.205 468.204 409.844 468.317 409.42C468.429 408.996 468.369 408.545 468.149 408.166L466.219 404.824C466.111 404.635 465.966 404.47 465.794 404.338C465.622 404.206 465.425 404.109 465.215 404.052C465.005 403.996 464.786 403.982 464.571 404.01C464.356 404.038 464.148 404.109 463.96 404.218L459.184 406.975V406.982C458.838 406.68 458.473 406.4 458.092 406.144H458.099L459.526 400.817C459.64 400.393 459.58 399.941 459.361 399.561C459.142 399.182 458.781 398.904 458.357 398.791L454.628 397.791C454.204 397.677 453.753 397.737 453.373 397.956C452.993 398.176 452.716 398.537 452.602 398.961L451.175 404.287H451.182C450.724 404.318 450.268 404.378 449.817 404.467H449.824L447.067 399.692C446.848 399.312 446.486 399.034 446.062 398.921C445.639 398.807 445.187 398.866 444.807 399.086L441.464 401.016C441.084 401.235 440.807 401.597 440.694 402.02C440.58 402.444 440.64 402.896 440.859 403.276L443.616 408.052L443.627 408.045C443.323 408.393 443.041 408.761 442.783 409.145V409.131L437.457 407.704C437.247 407.647 437.028 407.633 436.813 407.661C436.597 407.69 436.39 407.76 436.202 407.869C436.013 407.978 435.849 408.122 435.716 408.295C435.584 408.467 435.487 408.664 435.431 408.874L434.431 412.602C434.317 413.026 434.377 413.477 434.596 413.857C434.816 414.237 435.177 414.515 435.601 414.629L440.927 416.056L440.933 416.035C440.964 416.502 441.026 416.967 441.117 417.427L441.105 417.407L436.329 420.164C436.141 420.272 435.976 420.417 435.844 420.589C435.711 420.762 435.614 420.958 435.558 421.168C435.502 421.378 435.488 421.597 435.516 421.812C435.545 422.028 435.615 422.235 435.724 422.424L437.654 425.766C437.763 425.954 437.907 426.119 438.079 426.251C438.252 426.383 438.449 426.481 438.658 426.537C438.868 426.593 439.087 426.607 439.303 426.579C439.518 426.551 439.726 426.48 439.914 426.372L444.689 423.615L444.675 423.59C445.03 423.901 445.405 424.188 445.797 424.451L445.77 424.444L444.343 429.771C444.287 429.98 444.272 430.199 444.301 430.415C444.329 430.63 444.4 430.838 444.508 431.026C444.617 431.214 444.762 431.379 444.934 431.511C445.106 431.643 445.303 431.74 445.513 431.797L449.241 432.797C449.665 432.91 450.116 432.85 450.496 432.631C450.876 432.412 451.153 432.05 451.267 431.627L452.7 426.3L452.673 426.293C453.143 426.261 453.611 426.199 454.073 426.108L454.048 426.123L456.805 430.898C457.024 431.278 457.386 431.555 457.81 431.668C458.233 431.782 458.685 431.723 459.065 431.504L462.408 429.574C462.788 429.354 463.065 428.993 463.178 428.569C463.292 428.145 463.232 427.694 463.013 427.314L460.256 422.538L460.236 422.55C460.544 422.197 460.83 421.825 461.091 421.437V421.457L466.417 422.885C466.841 422.998 467.292 422.938 467.672 422.719C468.052 422.5 468.329 422.138 468.443 421.715L469.443 417.986C469.556 417.562 469.497 417.111 469.278 416.731C469.058 416.351 468.697 416.074 468.274 415.961V415.961Z" stroke="#1E223B" stroke-linecap="round" stroke-linejoin="round"/>
</g>
<g opacity="0.49">
<path opacity="0.49" d="M832.171 270.725C842.717 270.725 851.267 262.176 851.267 251.629C851.267 241.083 842.717 232.533 832.171 232.533C821.625 232.533 813.075 241.083 813.075 251.629C813.075 262.176 821.625 270.725 832.171 270.725Z" fill="white"/>
<path opacity="0.49" d="M832.171 259.813C836.691 259.813 840.355 256.149 840.355 251.629C840.355 247.109 836.691 243.445 832.171 243.445C827.651 243.445 823.987 247.109 823.987 251.629C823.987 256.149 827.651 259.813 832.171 259.813Z" fill="white"/>
<path opacity="0.49" d="M861.905 224.236L850.092 231.056L850.11 231.086C849.247 230.332 848.338 229.634 847.387 228.996L847.419 229.005L850.949 215.829C851.23 214.78 851.083 213.664 850.54 212.724C849.998 211.784 849.104 211.099 848.056 210.818L838.833 208.347C838.314 208.207 837.773 208.172 837.24 208.242C836.707 208.312 836.193 208.486 835.728 208.755C835.262 209.024 834.854 209.381 834.527 209.808C834.2 210.234 833.96 210.721 833.821 211.24L830.291 224.415L830.311 224.421C829.177 224.497 828.05 224.645 826.935 224.864L826.95 224.855L820.13 213.043C819.588 212.102 818.694 211.416 817.646 211.135C816.597 210.854 815.48 211 814.54 211.543L806.271 216.317C805.805 216.585 805.397 216.943 805.07 217.369C804.742 217.795 804.502 218.282 804.363 218.801C804.224 219.32 804.188 219.861 804.258 220.394C804.328 220.927 804.502 221.441 804.771 221.907L811.591 233.719L811.606 233.71C810.859 234.565 810.167 235.467 809.534 236.41V236.391L796.359 232.86C795.311 232.579 794.194 232.726 793.254 233.269C792.314 233.811 791.628 234.705 791.347 235.754L788.876 244.977C788.595 246.025 788.743 247.142 789.285 248.081C789.828 249.021 790.722 249.707 791.77 249.988L804.945 253.518L804.953 253.487C805.031 254.628 805.181 255.764 805.402 256.887L805.385 256.857L793.572 263.677C793.106 263.945 792.698 264.302 792.371 264.729C792.044 265.155 791.803 265.641 791.664 266.16C791.525 266.679 791.489 267.221 791.559 267.754C791.629 268.286 791.803 268.8 792.072 269.266L796.846 277.535C797.388 278.475 798.282 279.161 799.33 279.442C800.379 279.723 801.496 279.577 802.436 279.035L814.248 272.215L814.222 272.169C815.095 272.931 816.016 273.637 816.979 274.282L816.922 274.266L813.392 287.442C813.253 287.961 813.217 288.502 813.287 289.035C813.357 289.567 813.532 290.081 813.8 290.546C814.069 291.012 814.427 291.42 814.853 291.747C815.279 292.074 815.766 292.314 816.285 292.453L825.508 294.924C826.027 295.063 826.568 295.098 827.101 295.028C827.634 294.958 828.148 294.784 828.613 294.515C829.079 294.246 829.486 293.889 829.814 293.463C830.141 293.036 830.381 292.55 830.52 292.031L834.05 278.856L833.981 278.837C835.146 278.76 836.305 278.608 837.451 278.381L837.391 278.416L844.211 290.228C844.479 290.693 844.837 291.101 845.263 291.429C845.69 291.756 846.176 291.996 846.695 292.136C847.214 292.275 847.756 292.31 848.289 292.24C848.822 292.17 849.335 291.996 849.801 291.728L858.069 286.954C858.535 286.685 858.943 286.328 859.27 285.901C859.598 285.475 859.838 284.989 859.977 284.469C860.117 283.95 860.152 283.409 860.082 282.876C860.012 282.343 859.838 281.829 859.569 281.364L852.749 269.552L852.689 269.587C853.458 268.707 854.17 267.78 854.819 266.809L854.801 266.878L867.976 270.409C869.024 270.689 870.141 270.542 871.081 269.999C872.021 269.457 872.707 268.563 872.988 267.515L875.459 258.293C875.74 257.244 875.592 256.127 875.05 255.187C874.507 254.247 873.613 253.562 872.565 253.281L859.39 249.751L859.375 249.808C859.299 248.651 859.148 247.501 858.924 246.364L858.95 246.409L870.763 239.589C871.229 239.32 871.637 238.963 871.964 238.537C872.291 238.11 872.532 237.624 872.671 237.105C872.81 236.586 872.846 236.044 872.776 235.512C872.706 234.979 872.532 234.465 872.263 234L867.5 225.734C867.231 225.268 866.873 224.859 866.446 224.532C866.02 224.204 865.533 223.964 865.013 223.825C864.493 223.686 863.951 223.65 863.418 223.721C862.885 223.791 862.371 223.966 861.905 224.236V224.236Z" fill="white"/>
</g>
<path d="M832.178 270.725C842.724 270.725 851.274 262.176 851.274 251.629C851.274 241.083 842.724 232.533 832.178 232.533C821.631 232.533 813.082 241.083 813.082 251.629C813.082 262.176 821.631 270.725 832.178 270.725Z" stroke="#1E223B" stroke-width="2" stroke-linecap="round" stroke-linejoin="round"/>
<path d="M832.178 259.813C836.698 259.813 840.362 256.149 840.362 251.629C840.362 247.109 836.698 243.445 832.178 243.445C827.658 243.445 823.994 247.109 823.994 251.629C823.994 256.149 827.658 259.813 832.178 259.813Z" stroke="#1E223B" stroke-width="2" stroke-linecap="round" stroke-linejoin="round"/>
<path d="M872.573 253.284L859.398 249.754L859.389 249.787C859.312 248.645 859.162 247.51 858.942 246.387L858.958 246.415L870.771 239.595C871.236 239.326 871.645 238.969 871.972 238.543C872.299 238.117 872.54 237.63 872.679 237.111C872.818 236.592 872.854 236.051 872.784 235.518C872.714 234.985 872.54 234.471 872.271 234.006L867.5 225.734C866.957 224.794 866.064 224.107 865.016 223.826C863.967 223.545 862.85 223.691 861.91 224.234L850.097 231.054L850.107 231.072C849.252 230.324 848.35 229.631 847.407 228.998H847.424L850.954 215.822C851.235 214.773 851.087 213.657 850.545 212.717C850.002 211.777 849.108 211.092 848.06 210.811L838.838 208.34C838.319 208.201 837.778 208.165 837.245 208.235C836.712 208.305 836.198 208.48 835.733 208.748C835.267 209.017 834.859 209.375 834.532 209.801C834.205 210.227 833.965 210.714 833.826 211.233L830.296 224.408H830.313C829.179 224.485 828.052 224.634 826.937 224.853L826.955 224.843L820.135 213.031C819.592 212.091 818.699 211.404 817.651 211.123C816.602 210.842 815.485 210.989 814.545 211.531L806.276 216.305C805.81 216.573 805.402 216.931 805.075 217.357C804.747 217.783 804.507 218.27 804.368 218.789C804.229 219.308 804.193 219.85 804.263 220.382C804.333 220.915 804.507 221.429 804.776 221.895L811.596 233.707L811.624 233.691C810.871 234.554 810.173 235.463 809.535 236.414L809.544 236.381L796.369 232.85C795.321 232.569 794.204 232.716 793.264 233.259C792.324 233.802 791.638 234.695 791.357 235.744L788.886 244.966C788.605 246.014 788.752 247.131 789.295 248.071C789.837 249.011 790.731 249.697 791.779 249.978L804.955 253.508L804.968 253.458C805.047 254.614 805.199 255.764 805.424 256.901L805.395 256.85L793.582 263.67C793.116 263.938 792.708 264.296 792.381 264.722C792.054 265.148 791.813 265.634 791.674 266.153C791.535 266.673 791.499 267.214 791.569 267.747C791.639 268.28 791.813 268.793 792.082 269.259L796.856 277.528C797.398 278.468 798.292 279.154 799.34 279.435C800.389 279.717 801.506 279.57 802.446 279.028L814.258 272.208L814.223 272.146C815.102 272.915 816.029 273.627 817 274.277L816.932 274.259L813.402 287.434C813.263 287.953 813.227 288.494 813.297 289.027C813.367 289.56 813.542 290.073 813.81 290.539C814.079 291.004 814.437 291.412 814.863 291.739C815.289 292.067 815.776 292.307 816.295 292.446L825.518 294.917C826.037 295.056 826.578 295.092 827.111 295.022C827.644 294.952 828.158 294.777 828.623 294.509C829.088 294.24 829.496 293.882 829.823 293.456C830.15 293.029 830.39 292.543 830.529 292.024L834.06 278.849L833.992 278.831C835.158 278.753 836.317 278.6 837.463 278.373L837.401 278.409L844.221 290.221C844.489 290.686 844.847 291.095 845.273 291.422C845.699 291.75 846.186 291.99 846.705 292.129C847.224 292.268 847.766 292.304 848.299 292.234C848.832 292.164 849.345 291.99 849.811 291.721L858.079 286.947C858.545 286.678 858.953 286.321 859.28 285.895C859.608 285.468 859.848 284.982 859.987 284.463C860.127 283.943 860.162 283.402 860.092 282.869C860.022 282.336 859.848 281.822 859.579 281.357L852.759 269.545L852.708 269.575C853.472 268.703 854.178 267.782 854.824 266.82L854.811 266.871L867.986 270.402C869.034 270.682 870.151 270.535 871.091 269.993C872.031 269.45 872.717 268.556 872.998 267.508L875.469 258.286C875.747 257.238 875.598 256.124 875.055 255.186C874.512 254.249 873.619 253.564 872.573 253.284V253.284Z" stroke="#1E223B" stroke-width="2" stroke-linecap="round" stroke-linejoin="round"/>
<path d="M587.47 253.288H561.27L533.93 271.515V253.288H514.564C512.147 253.288 509.829 252.328 508.12 250.619C506.411 248.91 505.451 246.592 505.451 244.175V194.052C505.451 191.636 506.411 189.318 508.12 187.609C509.829 185.9 512.147 184.939 514.564 184.939H587.47C588.667 184.939 589.852 185.175 590.958 185.633C592.063 186.091 593.068 186.762 593.914 187.608C594.761 188.454 595.432 189.459 595.89 190.565C596.348 191.671 596.584 192.856 596.584 194.052V244.175C596.584 245.372 596.348 246.557 595.89 247.663C595.432 248.769 594.761 249.773 593.914 250.62C593.068 251.466 592.063 252.137 590.958 252.595C589.852 253.053 588.667 253.289 587.47 253.288V253.288Z" fill="white"/>
<path d="M587.47 253.288H561.27L533.93 271.515V253.288H514.564C512.147 253.288 509.829 252.328 508.12 250.619C506.411 248.91 505.451 246.592 505.451 244.175V194.052C505.451 191.636 506.411 189.318 508.12 187.609C509.829 185.9 512.147 184.939 514.564 184.939H587.47C588.667 184.939 589.852 185.175 590.958 185.633C592.063 186.091 593.068 186.762 593.914 187.608C594.761 188.454 595.432 189.459 595.89 190.565C596.348 191.671 596.584 192.856 596.584 194.052V244.175C596.584 245.372 596.348 246.557 595.89 247.663C595.432 248.769 594.761 249.773 593.914 250.62C593.068 251.466 592.063 252.137 590.958 252.595C589.852 253.053 588.667 253.289 587.47 253.288V253.288Z" stroke="#1E223B" stroke-width="2" stroke-linecap="round" stroke-linejoin="round"/>
<path opacity="0.5" d="M588.4 175.657H605.366L623.066 187.457V175.657H635.6C637.165 175.657 638.665 175.036 639.772 173.929C640.878 172.823 641.5 171.322 641.5 169.757V137.3C641.5 135.736 640.878 134.235 639.772 133.128C638.665 132.022 637.165 131.4 635.6 131.4H588.4C586.835 131.4 585.335 132.022 584.228 133.128C583.122 134.235 582.5 135.736 582.5 137.3V169.755C582.5 170.53 582.652 171.298 582.949 172.014C583.245 172.73 583.679 173.381 584.227 173.929C584.775 174.477 585.426 174.911 586.142 175.208C586.858 175.505 587.625 175.657 588.4 175.657V175.657Z" fill="white"/>
<path d="M588.4 175.657H605.366L623.066 187.457V175.657H635.6C637.165 175.657 638.665 175.036 639.772 173.929C640.878 172.823 641.5 171.322 641.5 169.757V137.3C641.5 135.736 640.878 134.235 639.772 133.128C638.665 132.022 637.165 131.4 635.6 131.4H588.4C586.835 131.4 585.335 132.022 584.228 133.128C583.122 134.235 582.5 135.736 582.5 137.3V169.755C582.5 170.53 582.652 171.298 582.949 172.014C583.245 172.73 583.679 173.381 584.227 173.929C584.775 174.477 585.426 174.911 586.142 175.208C586.858 175.505 587.625 175.657 588.4 175.657V175.657Z" stroke="#1E223B" stroke-width="2" stroke-linecap="round" stroke-linejoin="round"/>
<path d="M649.964 811.97C649.964 814.587 649.188 817.145 647.734 819.321C646.279 821.497 644.213 823.193 641.795 824.194C639.377 825.196 636.717 825.458 634.15 824.947C631.583 824.436 629.226 823.176 627.375 821.325C625.525 819.475 624.265 817.117 623.754 814.55C623.244 811.984 623.506 809.323 624.507 806.905C625.509 804.488 627.205 802.421 629.381 800.967C631.557 799.513 634.115 798.737 636.732 798.737C638.47 798.737 640.19 799.08 641.796 799.745C643.401 800.41 644.86 801.384 646.089 802.613C647.318 803.842 648.292 805.301 648.957 806.906C649.622 808.512 649.964 810.233 649.964 811.97V811.97Z" fill="#DD4814"/>
<path d="M627.734 810.2C627.385 810.2 627.043 810.303 626.752 810.497C626.462 810.691 626.235 810.967 626.101 811.289C625.967 811.612 625.932 811.967 626 812.31C626.067 812.653 626.235 812.968 626.482 813.215C626.729 813.462 627.043 813.631 627.386 813.7C627.729 813.768 628.084 813.734 628.407 813.6C628.73 813.467 629.006 813.241 629.201 812.951C629.395 812.661 629.499 812.319 629.5 811.97C629.5 811.738 629.455 811.508 629.366 811.293C629.278 811.078 629.148 810.883 628.984 810.719C628.82 810.555 628.625 810.424 628.411 810.335C628.196 810.246 627.966 810.2 627.734 810.2V810.2ZM640.348 818.229C640.045 818.404 639.801 818.664 639.647 818.977C639.492 819.29 639.434 819.642 639.479 819.989C639.525 820.335 639.672 820.66 639.902 820.923C640.133 821.185 640.436 821.374 640.773 821.464C641.11 821.555 641.467 821.543 641.798 821.431C642.128 821.319 642.419 821.111 642.631 820.834C642.844 820.557 642.97 820.223 642.993 819.875C643.016 819.526 642.935 819.179 642.76 818.876C642.525 818.471 642.139 818.176 641.687 818.055C641.235 817.934 640.753 817.998 640.348 818.232V818.229ZM631.572 811.966C631.571 811.138 631.77 810.322 632.152 809.587C632.534 808.852 633.088 808.22 633.766 807.745L632.474 805.581C630.904 806.628 629.775 808.217 629.301 810.043C629.587 810.276 629.817 810.569 629.975 810.902C630.133 811.234 630.215 811.598 630.215 811.967C630.215 812.335 630.133 812.699 629.975 813.031C629.817 813.364 629.587 813.657 629.301 813.89C629.775 815.717 630.904 817.305 632.474 818.352L633.766 816.188C633.088 815.713 632.535 815.081 632.153 814.347C631.771 813.613 631.572 812.797 631.572 811.969V811.966ZM636.732 806.806C638.021 806.806 639.263 807.289 640.214 808.158C641.165 809.028 641.756 810.222 641.871 811.506L644.389 811.469C644.269 809.585 643.457 807.812 642.109 806.491C641.765 806.621 641.396 806.673 641.03 806.643C640.663 806.613 640.308 806.502 639.99 806.318C639.671 806.134 639.398 805.882 639.189 805.579C638.98 805.276 638.841 804.931 638.782 804.568C636.963 804.064 635.023 804.247 633.331 805.084L634.558 807.284C635.239 806.969 635.981 806.807 636.732 806.809V806.806ZM636.732 817.127C635.981 817.128 635.239 816.964 634.558 816.647L633.331 818.847C635.023 819.683 636.963 819.866 638.782 819.362C638.841 818.999 638.98 818.654 639.189 818.351C639.398 818.048 639.671 817.796 639.99 817.612C640.308 817.428 640.663 817.317 641.03 817.287C641.396 817.257 641.765 817.309 642.109 817.439C643.457 816.118 644.269 814.345 644.389 812.461L641.871 812.424C641.758 813.709 641.167 814.905 640.216 815.776C639.265 816.647 638.022 817.13 636.732 817.13V817.127ZM640.348 805.704C640.651 805.878 640.998 805.959 641.346 805.936C641.695 805.913 642.029 805.788 642.306 805.575C642.583 805.362 642.791 805.072 642.903 804.741C643.015 804.411 643.026 804.054 642.936 803.717C642.846 803.38 642.657 803.077 642.395 802.846C642.132 802.616 641.807 802.469 641.461 802.423C641.114 802.378 640.762 802.436 640.449 802.59C640.136 802.745 639.876 802.989 639.701 803.291C639.584 803.492 639.509 803.714 639.478 803.944C639.447 804.175 639.463 804.409 639.523 804.633C639.583 804.858 639.687 805.068 639.828 805.253C639.97 805.437 640.147 805.591 640.348 805.707V805.704Z" fill="white"/>
<path d="M193.132 692.759L221.189 676.453L221.103 706.956L193.045 723.261L193.132 692.759Z" fill="#777BB4"/>
<path d="M193.132 692.759L221.189 676.453L221.103 706.956L193.045 723.261L193.132 692.759Z" stroke="#1E223B" stroke-width="2" stroke-linecap="round" stroke-linejoin="round"/>
<path opacity="0.88" d="M166.587 677.433L194.644 661.127L221.189 676.453L193.132 692.759L166.587 677.433Z" fill="#FF5855" stroke="#1E223B" stroke-miterlimit="10"/>
<path d="M193.132 692.759L193.045 723.261L166.5 707.935L166.587 677.433L193.132 692.759Z" fill="#0270BB"/>
<path d="M166.587 677.433L194.644 661.127L221.189 676.453L193.132 692.759L166.587 677.433Z" stroke="#1E223B" stroke-width="2" stroke-linecap="round" stroke-linejoin="round"/>
<path d="M193.132 692.759L193.045 723.261L166.5 707.935L166.587 677.433L193.132 692.759Z" stroke="#1E223B" stroke-width="2" stroke-linecap="round" stroke-linejoin="round"/>
<path opacity="0.59" d="M172.545 649.737C175.859 649.737 178.545 647.051 178.545 643.737C178.545 640.424 175.859 637.737 172.545 637.737C169.231 637.737 166.545 640.424 166.545 643.737C166.545 647.051 169.231 649.737 172.545 649.737Z" fill="white"/>
<path d="M172.545 649.737C175.859 649.737 178.545 647.051 178.545 643.737C178.545 640.424 175.859 637.737 172.545 637.737C169.231 637.737 166.545 640.424 166.545 643.737C166.545 647.051 169.231 649.737 172.545 649.737Z" stroke="#1E223B" stroke-width="2" stroke-linecap="round" stroke-linejoin="round"/>
<path opacity="0.59" d="M193.045 649.737C196.359 649.737 199.045 647.051 199.045 643.737C199.045 640.424 196.359 637.737 193.045 637.737C189.731 637.737 187.045 640.424 187.045 643.737C187.045 647.051 189.731 649.737 193.045 649.737Z" fill="white"/>
<path d="M193.045 649.737C196.359 649.737 199.045 647.051 199.045 643.737C199.045 640.424 196.359 637.737 193.045 637.737C189.731 637.737 187.045 640.424 187.045 643.737C187.045 647.051 189.731 649.737 193.045 649.737Z" stroke="#1E223B" stroke-width="2" stroke-linecap="round" stroke-linejoin="round"/>
<path opacity="0.59" d="M213.545 649.737C216.859 649.737 219.545 647.051 219.545 643.737C219.545 640.424 216.859 637.737 213.545 637.737C210.231 637.737 207.545 640.424 207.545 643.737C207.545 647.051 210.231 649.737 213.545 649.737Z" fill="white"/>
<path opacity="0.32" d="M897.25 560.49C919.065 560.49 936.75 542.805 936.75 520.99C936.75 499.175 919.065 481.49 897.25 481.49C875.435 481.49 857.75 499.175 857.75 520.99C857.75 542.805 875.435 560.49 897.25 560.49Z" fill="white"/>
<path d="M213.545 649.737C216.859 649.737 219.545 647.051 219.545 643.737C219.545 640.424 216.859 637.737 213.545 637.737C210.231 637.737 207.545 640.424 207.545 643.737C207.545 647.051 210.231 649.737 213.545 649.737Z" stroke="#1E223B" stroke-width="2" stroke-linecap="round" stroke-linejoin="round"/>
<path opacity="0.12" d="M897.792 521.419L876.454 509.019L876.519 532.217L897.858 544.617L897.792 521.419Z" fill="#0270BB"/>
<path d="M897.792 521.419L876.454 509.019L876.519 532.217L897.858 544.617L897.792 521.419Z" stroke="#1E223B" stroke-width="2" stroke-linecap="round" stroke-linejoin="round"/>
<path opacity="0.47" d="M917.98 509.764L896.642 497.363L876.454 509.019L897.792 521.419L917.98 509.764Z" fill="#0270BB"/>
<path d="M917.98 509.764L896.642 497.363L876.454 509.019L897.792 521.419L917.98 509.764Z" stroke="#1E223B" stroke-width="2" stroke-linecap="round" stroke-linejoin="round"/>
<path d="M897.792 521.419L897.858 544.617L918.046 532.962L917.98 509.764L897.792 521.419Z" fill="white" stroke="#1E223B" stroke-width="2" stroke-linecap="round" stroke-linejoin="round"/>
<path d="M897.792 521.419L897.858 544.617L918.046 532.962L917.98 509.764L897.792 521.419Z" stroke="#1E223B" stroke-width="2" stroke-linecap="round" stroke-linejoin="round"/>
<path d="M897.25 560.49C919.065 560.49 936.75 542.805 936.75 520.99C936.75 499.175 919.065 481.49 897.25 481.49C875.435 481.49 857.75 499.175 857.75 520.99C857.75 542.805 875.435 560.49 897.25 560.49Z" stroke="#1E223B" stroke-width="2" stroke-linecap="round" stroke-linejoin="round"/>
<path d="M799.976 274.479H710.398C703.832 274.479 698.509 279.801 698.509 286.368V322.033C698.509 328.599 703.832 333.922 710.398 333.922H799.976C806.542 333.922 811.865 328.599 811.865 322.033V286.368C811.865 279.801 806.542 274.479 799.976 274.479Z" fill="#777BB4"/>
<path d="M799.976 274.479H710.398C703.832 274.479 698.509 279.801 698.509 286.368V322.033C698.509 328.599 703.832 333.922 710.398 333.922H799.976C806.542 333.922 811.865 328.599 811.865 322.033V286.368C811.865 279.801 806.542 274.479 799.976 274.479Z" stroke="#1E223B" stroke-width="2" stroke-linecap="round" stroke-linejoin="round"/>
<path d="M875.638 545.49H805.644C800.65 545.49 796.602 549.538 796.602 554.532V581.657C796.602 586.651 800.65 590.699 805.644 590.699H875.638C880.632 590.699 884.68 586.651 884.68 581.657V554.532C884.68 549.538 880.632 545.49 875.638 545.49Z" fill="#0270BB"/>
<path d="M875.638 545.49H805.644C800.65 545.49 796.602 549.538 796.602 554.532V581.657C796.602 586.651 800.65 590.699 805.644 590.699H875.638C880.632 590.699 884.68 586.651 884.68 581.657V554.532C884.68 549.538 880.632 545.49 875.638 545.49Z" stroke="#1E223B" stroke-width="2" stroke-linecap="round" stroke-linejoin="round"/>
<path d="M810.184 567.821C810.184 561.359 814.984 556.998 821.163 556.998C822.85 556.951 824.519 557.361 825.993 558.183C827.468 559.006 828.692 560.211 829.539 561.672L826.433 563.303C825.891 562.384 825.122 561.621 824.198 561.088C823.275 560.555 822.229 560.269 821.163 560.26C817.023 560.26 813.948 563.397 813.948 567.821C813.948 572.181 817.023 575.38 821.163 575.38C822.228 575.363 823.271 575.075 824.193 574.542C825.115 574.01 825.886 573.251 826.433 572.337L829.57 573.906C828.715 575.37 827.486 576.581 826.008 577.413C824.531 578.246 822.859 578.67 821.163 578.643C814.983 578.643 810.184 574.251 810.184 567.821Z" fill="white"/>
<path d="M833.488 575.317L835.559 572.463C836.4 573.381 837.422 574.115 838.562 574.617C839.701 575.119 840.933 575.379 842.178 575.38C845.189 575.38 846.35 573.906 846.35 572.494C846.35 568.102 834.178 570.832 834.178 563.147C834.178 559.664 837.19 556.998 841.802 556.998C843.234 556.948 844.662 557.183 846.003 557.689C847.344 558.195 848.571 558.963 849.613 559.947L847.542 562.675C846.736 561.891 845.784 561.275 844.74 560.86C843.695 560.446 842.579 560.242 841.456 560.26C839.323 560.26 837.943 561.327 837.943 562.86C837.943 566.782 850.114 564.366 850.114 572.146C850.114 575.628 847.636 578.639 842.021 578.639C840.447 578.703 838.876 578.441 837.408 577.869C835.939 577.297 834.605 576.428 833.488 575.317Z" fill="white"/>
<path d="M854.472 575.317L856.543 572.463C857.384 573.381 858.407 574.115 859.546 574.617C860.685 575.119 861.917 575.379 863.162 575.38C866.173 575.38 867.334 573.906 867.334 572.494C867.334 568.102 855.162 570.832 855.162 563.147C855.162 559.664 858.174 556.998 862.786 556.998C864.218 556.948 865.646 557.183 866.987 557.689C868.328 558.195 869.555 558.963 870.597 559.947L868.526 562.675C867.72 561.891 866.768 561.275 865.724 560.86C864.679 560.446 863.563 560.242 862.44 560.26C860.307 560.26 858.927 561.327 858.927 562.86C858.927 566.782 871.098 564.366 871.098 572.146C871.098 575.628 868.62 578.639 863.005 578.639C861.431 578.703 859.86 578.441 858.391 577.869C856.923 577.297 855.589 576.428 854.472 575.317V575.317Z" fill="white"/>
<path d="M715.38 317.476V290.826H727.127C732.72 290.826 735.796 294.626 735.796 299.176C735.796 303.691 732.681 307.487 727.127 307.487H720.055V317.476H715.38ZM731.002 299.176C731.002 296.619 729.124 294.942 726.487 294.942H720.055V303.372H726.487C729.124 303.372 731 301.693 731 299.176H731.002Z" fill="white"/>
<path d="M761.24 317.476V305.809H747.376V317.476H742.7V290.826H747.374V301.693H761.24V290.826H765.914V317.476H761.24Z" fill="white"/>
<path d="M774.577 317.476V290.826H786.323C791.916 290.826 794.993 294.626 794.993 299.176C794.993 303.691 791.877 307.487 786.323 307.487H779.251V317.476H774.577ZM790.198 299.176C790.198 296.619 788.32 294.942 785.683 294.942H779.251V303.372H785.683C788.32 303.372 790.2 301.693 790.2 299.176H790.198Z" fill="white"/>
<path d="M579.063 554.988C579.344 555.395 579.516 555.362 579.734 555.269C579.952 555.176 591.203 551.378 591.547 551.253C591.891 551.128 591.781 551.019 591.672 550.847C591.563 550.675 587.813 545.582 587.625 545.285C587.437 544.988 587.344 545.05 587.047 545.144L575.121 548.245C575.121 548.245 578.781 554.579 579.063 554.985V554.988Z" fill="#F35045"/>
<path d="M592.5 549.8V543.837L588.791 544.825C589.802 546.177 591.382 548.293 592.5 549.8V549.8Z" fill="#F35045"/>
<path d="M588.78 537.483C588.596 537.524 584.526 538.26 584.28 538.293C584.034 538.326 584.113 538.469 584.213 538.611L587.794 543.525C587.794 543.525 592.173 542.438 592.441 542.38L592.504 542.365V541.714C591.704 540.705 589.54 537.957 589.352 537.7C589.127 537.391 588.968 537.441 588.784 537.483H588.78Z" fill="#F35045"/>
<path d="M563.174 529.764C564.055 529.724 564.135 529.925 564.522 530.499L574.25 546.761L586.48 543.831C585.803 542.87 582.726 538.509 582.429 538.093C582.095 537.625 582.437 537.407 582.98 537.316C583.523 537.225 588.203 536.438 588.604 536.38C589.005 536.322 589.323 536.18 589.975 536.965C590.308 537.365 591.439 538.774 592.5 540.094V532.487C592.497 530.698 591.785 528.983 590.519 527.718C589.254 526.452 587.539 525.74 585.75 525.737H563.25C562.362 525.724 561.481 525.893 560.66 526.234C559.84 526.574 559.098 527.08 558.481 527.718C557.753 528.429 557.199 529.297 556.861 530.256C559.066 530.075 562.561 529.792 563.174 529.764V529.764Z" fill="#F35045"/>
<path d="M580.166 557.176C579.134 557.489 578.672 557.644 578 556.706C577.5 556.006 574.776 551.106 573.442 548.687C570.917 549.349 566.296 550.555 564.964 550.875C564.563 551.015 564.124 550.994 563.738 550.818C563.352 550.641 563.05 550.322 562.894 549.927C562.744 549.59 558.931 541.369 556.5 536.095V554.987C556.503 556.776 557.215 558.491 558.481 559.756C559.746 561.021 561.461 561.734 563.25 561.737H585.75C587.539 561.734 589.255 561.022 590.52 559.757C591.785 558.491 592.497 556.776 592.5 554.987V552.768C589.738 553.778 580.861 556.968 580.166 557.176Z" fill="#F35045"/>
<path d="M565 548.981C565.365 548.897 572.215 547.258 572.362 547.227C572.509 547.196 572.602 547.112 572.445 546.84L563.314 531.078C563.231 530.936 563.255 530.888 563.03 530.9C562.83 530.911 557.751 531.364 556.575 531.462C556.54 531.711 556.518 531.961 556.51 532.212C557.704 534.655 564.554 548.782 564.592 548.897C564.63 549.012 564.634 549.065 565 548.981V548.981Z" fill="#F35045"/>
<path opacity="0.32" d="M474.5 411.737H568.5" stroke="#1E223B" stroke-width="2" stroke-linecap="round" stroke-linejoin="round"/>
<path opacity="0.32" d="M474.5 419.737H534.5" stroke="#1E223B" stroke-width="2" stroke-linecap="round" stroke-linejoin="round"/>
<path opacity="0.15" d="M446.5 458.737H540.5" stroke="#1E223B" stroke-width="2" stroke-linecap="round" stroke-linejoin="round"/>
<path opacity="0.32" d="M446.5 467.404H506.5" stroke="#1E223B" stroke-width="2" stroke-linecap="round" stroke-linejoin="round"/>
<path opacity="0.32" d="M494.5 476.071H529.5" stroke="#1E223B" stroke-width="2" stroke-linecap="round" stroke-linejoin="round"/>
<path opacity="0.26" d="M446.5 476.071H488.5" stroke="#1E223B" stroke-width="2" stroke-linecap="round" stroke-linejoin="round"/>
<path opacity="0.15" d="M446.5 484.737H482.5" stroke="#1E223B" stroke-width="2" stroke-linecap="round" stroke-linejoin="round"/>
<path d="M450.5 501.071C449.439 501.071 448.422 501.493 447.672 502.243C446.921 502.993 446.5 504.01 446.5 505.071C446.5 506.132 446.921 507.15 447.672 507.9C448.422 508.65 449.439 509.071 450.5 509.071H531.167V501.071H450.5Z" fill="#4AD3A5" stroke="#1E223B" stroke-miterlimit="10"/>
<path d="M576.5 501.071H450.5C448.291 501.071 446.5 502.862 446.5 505.071C446.5 507.28 448.291 509.071 450.5 509.071H576.5C578.709 509.071 580.5 507.28 580.5 505.071C580.5 502.862 578.709 501.071 576.5 501.071Z" stroke="#1E223B" stroke-linecap="round" stroke-linejoin="round"/>
<path d="M647.25 605.737H373.75C372.507 605.737 371.5 606.745 371.5 607.987V616.487C371.5 617.73 372.507 618.737 373.75 618.737H647.25C648.493 618.737 649.5 617.73 649.5 616.487V607.987C649.5 606.745 648.493 605.737 647.25 605.737Z" fill="#263C72"/>
<path d="M649.5 605.737H371.5V618.737H649.5V605.737Z" stroke="#1E223B" stroke-width="2" stroke-linecap="round" stroke-linejoin="round"/>
<path d="M646.5 637.737H630.5C628.843 637.737 627.5 639.08 627.5 640.737V646.737C627.5 648.394 628.843 649.737 630.5 649.737H646.5C648.157 649.737 649.5 648.394 649.5 646.737V640.737C649.5 639.08 648.157 637.737 646.5 637.737Z" fill="#363D56"/>
<path d="M614.5 637.737H598.5C596.843 637.737 595.5 639.08 595.5 640.737V646.737C595.5 648.394 596.843 649.737 598.5 649.737H614.5C616.157 649.737 617.5 648.394 617.5 646.737V640.737C617.5 639.08 616.157 637.737 614.5 637.737Z" fill="#363D56"/>
<path d="M582.5 637.737H566.5C564.843 637.737 563.5 639.08 563.5 640.737V646.737C563.5 648.394 564.843 649.737 566.5 649.737H582.5C584.157 649.737 585.5 648.394 585.5 646.737V640.737C585.5 639.08 584.157 637.737 582.5 637.737Z" fill="#363D56"/>
<path d="M550.5 637.737H534.5C532.843 637.737 531.5 639.08 531.5 640.737V646.737C531.5 648.394 532.843 649.737 534.5 649.737H550.5C552.157 649.737 553.5 648.394 553.5 646.737V640.737C553.5 639.08 552.157 637.737 550.5 637.737Z" fill="#363D56"/>
<path d="M518.5 637.737H502.5C500.843 637.737 499.5 639.08 499.5 640.737V646.737C499.5 648.394 500.843 649.737 502.5 649.737H518.5C520.157 649.737 521.5 648.394 521.5 646.737V640.737C521.5 639.08 520.157 637.737 518.5 637.737Z" fill="#363D56"/>
<path d="M486.5 637.737H470.5C468.843 637.737 467.5 639.08 467.5 640.737V646.737C467.5 648.394 468.843 649.737 470.5 649.737H486.5C488.157 649.737 489.5 648.394 489.5 646.737V640.737C489.5 639.08 488.157 637.737 486.5 637.737Z" fill="#363D56"/>
<path d="M454.5 637.737H438.5C436.843 637.737 435.5 639.08 435.5 640.737V646.737C435.5 648.394 436.843 649.737 438.5 649.737H454.5C456.157 649.737 457.5 648.394 457.5 646.737V640.737C457.5 639.08 456.157 637.737 454.5 637.737Z" fill="#363D56"/>
<path d="M422.5 637.737H406.5C404.843 637.737 403.5 639.08 403.5 640.737V646.737C403.5 648.394 404.843 649.737 406.5 649.737H422.5C424.157 649.737 425.5 648.394 425.5 646.737V640.737C425.5 639.08 424.157 637.737 422.5 637.737Z" fill="#363D56"/>
<path d="M390.5 637.737H374.5C372.843 637.737 371.5 639.08 371.5 640.737V646.737C371.5 648.394 372.843 649.737 374.5 649.737H390.5C392.157 649.737 393.5 648.394 393.5 646.737V640.737C393.5 639.08 392.157 637.737 390.5 637.737Z" fill="#363D56"/>
<path d="M582.5 663.214H566.5C564.843 663.214 563.5 664.557 563.5 666.214V682.214C563.5 683.871 564.843 685.214 566.5 685.214H582.5C584.157 685.214 585.5 683.871 585.5 682.214V666.214C585.5 664.557 584.157 663.214 582.5 663.214Z" fill="#363D56"/>
<path d="M550.5 663.214H534.5C532.843 663.214 531.5 664.557 531.5 666.214V682.214C531.5 683.871 532.843 685.214 534.5 685.214H550.5C552.157 685.214 553.5 683.871 553.5 682.214V666.214C553.5 664.557 552.157 663.214 550.5 663.214Z" fill="#363D56"/>
<path d="M518.5 663.214H502.5C500.843 663.214 499.5 664.557 499.5 666.214V682.214C499.5 683.871 500.843 685.214 502.5 685.214H518.5C520.157 685.214 521.5 683.871 521.5 682.214V666.214C521.5 664.557 520.157 663.214 518.5 663.214Z" fill="#363D56"/>
<path d="M486.5 663.214H470.5C468.843 663.214 467.5 664.557 467.5 666.214V682.214C467.5 683.871 468.843 685.214 470.5 685.214H486.5C488.157 685.214 489.5 683.871 489.5 682.214V666.214C489.5 664.557 488.157 663.214 486.5 663.214Z" fill="#363D56"/>
<path d="M454.5 663.214H438.5C436.843 663.214 435.5 664.557 435.5 666.214V682.214C435.5 683.871 436.843 685.214 438.5 685.214H454.5C456.157 685.214 457.5 683.871 457.5 682.214V666.214C457.5 664.557 456.157 663.214 454.5 663.214Z" fill="#363D56"/>
<path d="M422.5 663.214H406.5C404.843 663.214 403.5 664.557 403.5 666.214V682.214C403.5 683.871 404.843 685.214 406.5 685.214H422.5C424.157 685.214 425.5 683.871 425.5 682.214V666.214C425.5 664.557 424.157 663.214 422.5 663.214Z" fill="#363D56"/>
<path d="M390.5 663.214H374.5C372.843 663.214 371.5 664.557 371.5 666.214V682.214C371.5 683.871 372.843 685.214 374.5 685.214H390.5C392.157 685.214 393.5 683.871 393.5 682.214V666.214C393.5 664.557 392.157 663.214 390.5 663.214Z" fill="#363D56"/>
<path d="M646.5 663.214H630.5C628.843 663.214 627.5 664.557 627.5 666.214V713.726C627.5 715.383 628.843 716.726 630.5 716.726H646.5C648.157 716.726 649.5 715.383 649.5 713.726V666.214C649.5 664.557 648.157 663.214 646.5 663.214Z" fill="#363D56"/>
<path d="M614.5 663.214H598.5C597.704 663.214 596.941 663.53 596.379 664.093C595.816 664.655 595.5 665.418 595.5 666.214V691.726C595.5 692.522 595.184 693.285 594.621 693.847C594.059 694.41 593.296 694.726 592.5 694.726H566.5C565.704 694.726 564.941 695.042 564.379 695.605C563.816 696.167 563.5 696.93 563.5 697.726V713.726C563.5 714.522 563.816 715.285 564.379 715.847C564.941 716.41 565.704 716.726 566.5 716.726H614.5C615.296 716.726 616.059 716.41 616.621 715.847C617.184 715.285 617.5 714.522 617.5 713.726V666.214C617.5 665.418 617.184 664.655 616.621 664.093C616.059 663.53 615.296 663.214 614.5 663.214Z" fill="#363D56"/>
<path d="M550.5 694.726H534.5C532.843 694.726 531.5 696.069 531.5 697.726V713.726C531.5 715.382 532.843 716.726 534.5 716.726H550.5C552.157 716.726 553.5 715.382 553.5 713.726V697.726C553.5 696.069 552.157 694.726 550.5 694.726Z" fill="#363D56"/>
<path d="M518.5 694.726H502.5C500.843 694.726 499.5 696.069 499.5 697.726V713.726C499.5 715.382 500.843 716.726 502.5 716.726H518.5C520.157 716.726 521.5 715.382 521.5 713.726V697.726C521.5 696.069 520.157 694.726 518.5 694.726Z" fill="#363D56"/>
<path d="M486.5 694.726H470.5C468.843 694.726 467.5 696.069 467.5 697.726V713.726C467.5 715.382 468.843 716.726 470.5 716.726H486.5C488.157 716.726 489.5 715.382 489.5 713.726V697.726C489.5 696.069 488.157 694.726 486.5 694.726Z" fill="#363D56"/>
<path d="M454.5 694.726H438.5C436.843 694.726 435.5 696.069 435.5 697.726V713.726C435.5 715.382 436.843 716.726 438.5 716.726H454.5C456.157 716.726 457.5 715.382 457.5 713.726V697.726C457.5 696.069 456.157 694.726 454.5 694.726Z" fill="#363D56"/>
<path d="M422.5 694.726H374.5C372.843 694.726 371.5 696.069 371.5 697.726V713.726C371.5 715.382 372.843 716.726 374.5 716.726H422.5C424.157 716.726 425.5 715.382 425.5 713.726V697.726C425.5 696.069 424.157 694.726 422.5 694.726Z" fill="#363D56"/>
<path d="M646.5 726.237H630.5C628.843 726.237 627.5 727.58 627.5 729.237V745.237C627.5 746.894 628.843 748.237 630.5 748.237H646.5C648.157 748.237 649.5 746.894 649.5 745.237V729.237C649.5 727.58 648.157 726.237 646.5 726.237Z" fill="#363D56"/>
<path d="M614.5 726.237H598.5C596.843 726.237 595.5 727.58 595.5 729.237V745.237C595.5 746.894 596.843 748.237 598.5 748.237H614.5C616.157 748.237 617.5 746.894 617.5 745.237V729.237C617.5 727.58 616.157 726.237 614.5 726.237Z" fill="#363D56"/>
<path d="M582.5 726.237H566.5C564.843 726.237 563.5 727.58 563.5 729.237V745.237C563.5 746.894 564.843 748.237 566.5 748.237H582.5C584.157 748.237 585.5 746.894 585.5 745.237V729.237C585.5 727.58 584.157 726.237 582.5 726.237Z" fill="#363D56"/>
<path d="M550.5 726.237H470.5C468.843 726.237 467.5 727.58 467.5 729.237V745.237C467.5 746.894 468.843 748.237 470.5 748.237H550.5C552.157 748.237 553.5 746.894 553.5 745.237V729.237C553.5 727.58 552.157 726.237 550.5 726.237Z" fill="#363D56"/>
<path d="M454.5 726.237H438.5C436.843 726.237 435.5 727.58 435.5 729.237V745.237C435.5 746.894 436.843 748.237 438.5 748.237H454.5C456.157 748.237 457.5 746.894 457.5 745.237V729.237C457.5 727.58 456.157 726.237 454.5 726.237Z" fill="#363D56"/>
<path d="M422.5 726.237H406.5C404.843 726.237 403.5 727.58 403.5 729.237V745.237C403.5 746.894 404.843 748.237 406.5 748.237H422.5C424.157 748.237 425.5 746.894 425.5 745.237V729.237C425.5 727.58 424.157 726.237 422.5 726.237Z" fill="#363D56"/>
<path d="M390.5 726.237H374.5C372.843 726.237 371.5 727.58 371.5 729.237V745.237C371.5 746.894 372.843 748.237 374.5 748.237H390.5C392.157 748.237 393.5 746.894 393.5 745.237V729.237C393.5 727.58 392.157 726.237 390.5 726.237Z" fill="#363D56"/>
<path d="M646.5 637.737H630.5C628.843 637.737 627.5 639.08 627.5 640.737V646.737C627.5 648.394 628.843 649.737 630.5 649.737H646.5C648.157 649.737 649.5 648.394 649.5 646.737V640.737C649.5 639.08 648.157 637.737 646.5 637.737Z" stroke="#1E223B" stroke-width="2" stroke-linecap="round" stroke-linejoin="round"/>
<path d="M614.5 637.737H598.5C596.843 637.737 595.5 639.08 595.5 640.737V646.737C595.5 648.394 596.843 649.737 598.5 649.737H614.5C616.157 649.737 617.5 648.394 617.5 646.737V640.737C617.5 639.08 616.157 637.737 614.5 637.737Z" stroke="#1E223B" stroke-width="2" stroke-linecap="round" stroke-linejoin="round"/>
<path d="M582.5 637.737H566.5C564.843 637.737 563.5 639.08 563.5 640.737V646.737C563.5 648.394 564.843 649.737 566.5 649.737H582.5C584.157 649.737 585.5 648.394 585.5 646.737V640.737C585.5 639.08 584.157 637.737 582.5 637.737Z" stroke="#1E223B" stroke-width="2" stroke-linecap="round" stroke-linejoin="round"/>
<path d="M550.5 637.737H534.5C532.843 637.737 531.5 639.08 531.5 640.737V646.737C531.5 648.394 532.843 649.737 534.5 649.737H550.5C552.157 649.737 553.5 648.394 553.5 646.737V640.737C553.5 639.08 552.157 637.737 550.5 637.737Z" stroke="#1E223B" stroke-width="2" stroke-linecap="round" stroke-linejoin="round"/>
<path d="M518.5 637.737H502.5C500.843 637.737 499.5 639.08 499.5 640.737V646.737C499.5 648.394 500.843 649.737 502.5 649.737H518.5C520.157 649.737 521.5 648.394 521.5 646.737V640.737C521.5 639.08 520.157 637.737 518.5 637.737Z" stroke="#1E223B" stroke-width="2" stroke-linecap="round" stroke-linejoin="round"/>
<path d="M486.5 637.737H470.5C468.843 637.737 467.5 639.08 467.5 640.737V646.737C467.5 648.394 468.843 649.737 470.5 649.737H486.5C488.157 649.737 489.5 648.394 489.5 646.737V640.737C489.5 639.08 488.157 637.737 486.5 637.737Z" stroke="#1E223B" stroke-width="2" stroke-linecap="round" stroke-linejoin="round"/>
<path d="M454.5 637.737H438.5C436.843 637.737 435.5 639.08 435.5 640.737V646.737C435.5 648.394 436.843 649.737 438.5 649.737H454.5C456.157 649.737 457.5 648.394 457.5 646.737V640.737C457.5 639.08 456.157 637.737 454.5 637.737Z" stroke="#1E223B" stroke-width="2" stroke-linecap="round" stroke-linejoin="round"/>
<path d="M422.5 637.737H406.5C404.843 637.737 403.5 639.08 403.5 640.737V646.737C403.5 648.394 404.843 649.737 406.5 649.737H422.5C424.157 649.737 425.5 648.394 425.5 646.737V640.737C425.5 639.08 424.157 637.737 422.5 637.737Z" stroke="#1E223B" stroke-width="2" stroke-linecap="round" stroke-linejoin="round"/>
<path d="M390.5 637.737H374.5C372.843 637.737 371.5 639.08 371.5 640.737V646.737C371.5 648.394 372.843 649.737 374.5 649.737H390.5C392.157 649.737 393.5 648.394 393.5 646.737V640.737C393.5 639.08 392.157 637.737 390.5 637.737Z" stroke="#1E223B" stroke-width="2" stroke-linecap="round" stroke-linejoin="round"/>
<path d="M582.5 663.214H566.5C564.843 663.214 563.5 664.557 563.5 666.214V682.214C563.5 683.871 564.843 685.214 566.5 685.214H582.5C584.157 685.214 585.5 683.871 585.5 682.214V666.214C585.5 664.557 584.157 663.214 582.5 663.214Z" stroke="#1E223B" stroke-width="2" stroke-linecap="round" stroke-linejoin="round"/>
<path d="M550.5 663.214H534.5C532.843 663.214 531.5 664.557 531.5 666.214V682.214C531.5 683.871 532.843 685.214 534.5 685.214H550.5C552.157 685.214 553.5 683.871 553.5 682.214V666.214C553.5 664.557 552.157 663.214 550.5 663.214Z" stroke="#1E223B" stroke-width="2" stroke-linecap="round" stroke-linejoin="round"/>
<path d="M518.5 663.214H502.5C500.843 663.214 499.5 664.557 499.5 666.214V682.214C499.5 683.871 500.843 685.214 502.5 685.214H518.5C520.157 685.214 521.5 683.871 521.5 682.214V666.214C521.5 664.557 520.157 663.214 518.5 663.214Z" stroke="#1E223B" stroke-width="2" stroke-linecap="round" stroke-linejoin="round"/>
<path d="M486.5 663.214H470.5C468.843 663.214 467.5 664.557 467.5 666.214V682.214C467.5 683.871 468.843 685.214 470.5 685.214H486.5C488.157 685.214 489.5 683.871 489.5 682.214V666.214C489.5 664.557 488.157 663.214 486.5 663.214Z" stroke="#1E223B" stroke-width="2" stroke-linecap="round" stroke-linejoin="round"/>
<path d="M454.5 663.214H438.5C436.843 663.214 435.5 664.557 435.5 666.214V682.214C435.5 683.871 436.843 685.214 438.5 685.214H454.5C456.157 685.214 457.5 683.871 457.5 682.214V666.214C457.5 664.557 456.157 663.214 454.5 663.214Z" stroke="#1E223B" stroke-width="2" stroke-linecap="round" stroke-linejoin="round"/>
<path d="M422.5 663.214H406.5C404.843 663.214 403.5 664.557 403.5 666.214V682.214C403.5 683.871 404.843 685.214 406.5 685.214H422.5C424.157 685.214 425.5 683.871 425.5 682.214V666.214C425.5 664.557 424.157 663.214 422.5 663.214Z" stroke="#1E223B" stroke-width="2" stroke-linecap="round" stroke-linejoin="round"/>
<path d="M390.5 663.214H374.5C372.843 663.214 371.5 664.557 371.5 666.214V682.214C371.5 683.871 372.843 685.214 374.5 685.214H390.5C392.157 685.214 393.5 683.871 393.5 682.214V666.214C393.5 664.557 392.157 663.214 390.5 663.214Z" stroke="#1E223B" stroke-width="2" stroke-linecap="round" stroke-linejoin="round"/>
<path d="M646.5 663.214H630.5C628.843 663.214 627.5 664.557 627.5 666.214V713.726C627.5 715.383 628.843 716.726 630.5 716.726H646.5C648.157 716.726 649.5 715.383 649.5 713.726V666.214C649.5 664.557 648.157 663.214 646.5 663.214Z" stroke="#1E223B" stroke-width="2" stroke-linecap="round" stroke-linejoin="round"/>
<path d="M614.5 663.214H598.5C597.704 663.214 596.941 663.53 596.379 664.093C595.816 664.655 595.5 665.418 595.5 666.214V691.726C595.5 692.522 595.184 693.285 594.621 693.847C594.059 694.41 593.296 694.726 592.5 694.726H566.5C565.704 694.726 564.941 695.042 564.379 695.605C563.816 696.167 563.5 696.93 563.5 697.726V713.726C563.5 714.522 563.816 715.285 564.379 715.847C564.941 716.41 565.704 716.726 566.5 716.726H614.5C615.296 716.726 616.059 716.41 616.621 715.847C617.184 715.285 617.5 714.522 617.5 713.726V666.214C617.5 665.418 617.184 664.655 616.621 664.093C616.059 663.53 615.296 663.214 614.5 663.214Z" stroke="#1E223B" stroke-width="2" stroke-linecap="round" stroke-linejoin="round"/>
<path d="M550.5 694.726H534.5C532.843 694.726 531.5 696.069 531.5 697.726V713.726C531.5 715.382 532.843 716.726 534.5 716.726H550.5C552.157 716.726 553.5 715.382 553.5 713.726V697.726C553.5 696.069 552.157 694.726 550.5 694.726Z" stroke="#1E223B" stroke-width="2" stroke-linecap="round" stroke-linejoin="round"/>
<path d="M518.5 694.726H502.5C500.843 694.726 499.5 696.069 499.5 697.726V713.726C499.5 715.382 500.843 716.726 502.5 716.726H518.5C520.157 716.726 521.5 715.382 521.5 713.726V697.726C521.5 696.069 520.157 694.726 518.5 694.726Z" stroke="#1E223B" stroke-width="2" stroke-linecap="round" stroke-linejoin="round"/>
<path d="M486.5 694.726H470.5C468.843 694.726 467.5 696.069 467.5 697.726V713.726C467.5 715.382 468.843 716.726 470.5 716.726H486.5C488.157 716.726 489.5 715.382 489.5 713.726V697.726C489.5 696.069 488.157 694.726 486.5 694.726Z" stroke="#1E223B" stroke-width="2" stroke-linecap="round" stroke-linejoin="round"/>
<path d="M454.5 694.726H438.5C436.843 694.726 435.5 696.069 435.5 697.726V713.726C435.5 715.382 436.843 716.726 438.5 716.726H454.5C456.157 716.726 457.5 715.382 457.5 713.726V697.726C457.5 696.069 456.157 694.726 454.5 694.726Z" stroke="#1E223B" stroke-width="2" stroke-linecap="round" stroke-linejoin="round"/>
<path d="M422.5 694.726H374.5C372.843 694.726 371.5 696.069 371.5 697.726V713.726C371.5 715.382 372.843 716.726 374.5 716.726H422.5C424.157 716.726 425.5 715.382 425.5 713.726V697.726C425.5 696.069 424.157 694.726 422.5 694.726Z" stroke="#1E223B" stroke-width="2" stroke-linecap="round" stroke-linejoin="round"/>
<path d="M646.5 726.237H630.5C628.843 726.237 627.5 727.58 627.5 729.237V745.237C627.5 746.894 628.843 748.237 630.5 748.237H646.5C648.157 748.237 649.5 746.894 649.5 745.237V729.237C649.5 727.58 648.157 726.237 646.5 726.237Z" stroke="#1E223B" stroke-width="2" stroke-linecap="round" stroke-linejoin="round"/>
<path d="M614.5 726.237H598.5C596.843 726.237 595.5 727.58 595.5 729.237V745.237C595.5 746.894 596.843 748.237 598.5 748.237H614.5C616.157 748.237 617.5 746.894 617.5 745.237V729.237C617.5 727.58 616.157 726.237 614.5 726.237Z" stroke="#1E223B" stroke-width="2" stroke-linecap="round" stroke-linejoin="round"/>
<path d="M582.5 726.237H566.5C564.843 726.237 563.5 727.58 563.5 729.237V745.237C563.5 746.894 564.843 748.237 566.5 748.237H582.5C584.157 748.237 585.5 746.894 585.5 745.237V729.237C585.5 727.58 584.157 726.237 582.5 726.237Z" stroke="#1E223B" stroke-width="2" stroke-linecap="round" stroke-linejoin="round"/>
<path d="M550.5 726.237H470.5C468.843 726.237 467.5 727.58 467.5 729.237V745.237C467.5 746.894 468.843 748.237 470.5 748.237H550.5C552.157 748.237 553.5 746.894 553.5 745.237V729.237C553.5 727.58 552.157 726.237 550.5 726.237Z" stroke="#1E223B" stroke-width="2" stroke-linecap="round" stroke-linejoin="round"/>
<path d="M454.5 726.237H438.5C436.843 726.237 435.5 727.58 435.5 729.237V745.237C435.5 746.894 436.843 748.237 438.5 748.237H454.5C456.157 748.237 457.5 746.894 457.5 745.237V729.237C457.5 727.58 456.157 726.237 454.5 726.237Z" stroke="#1E223B" stroke-width="2" stroke-linecap="round" stroke-linejoin="round"/>
<path d="M422.5 726.237H406.5C404.843 726.237 403.5 727.58 403.5 729.237V745.237C403.5 746.894 404.843 748.237 406.5 748.237H422.5C424.157 748.237 425.5 746.894 425.5 745.237V729.237C425.5 727.58 424.157 726.237 422.5 726.237Z" stroke="#1E223B" stroke-width="2" stroke-linecap="round" stroke-linejoin="round"/>
<path d="M390.5 726.237H374.5C372.843 726.237 371.5 727.58 371.5 729.237V745.237C371.5 746.894 372.843 748.237 374.5 748.237H390.5C392.157 748.237 393.5 746.894 393.5 745.237V729.237C393.5 727.58 392.157 726.237 390.5 726.237Z" stroke="#1E223B" stroke-width="2" stroke-linecap="round" stroke-linejoin="round"/>
<path d="M436.644 819.604H392.644V859.604H436.644V819.604Z" fill="#F2A197"/>
<path d="M436.644 819.604H392.644V859.604H436.644V819.604Z" stroke="#1E223B" stroke-width="2" stroke-linecap="round" stroke-linejoin="round"/>
<path d="M440.013 850.604H388.115V876.117H440.013V850.604Z" fill="white"/>
<path d="M440.013 850.604H388.115V876.117H440.013V850.604Z" stroke="#1E223B" stroke-width="2" stroke-linecap="round" stroke-linejoin="round"/>
<path d="M386.172 875.47H441.956C443.676 875.47 445.326 876.153 446.543 877.37C447.76 878.586 448.443 880.236 448.443 881.957V998.714H379.685V881.956C379.685 880.235 380.369 878.586 381.585 877.369C382.802 876.153 384.452 875.47 386.172 875.47V875.47Z" fill="#1E223B"/>
<path d="M386.172 875.47H441.956C443.676 875.47 445.326 876.153 446.543 877.37C447.76 878.586 448.443 880.236 448.443 881.957V998.714H379.685V881.956C379.685 880.235 380.369 878.586 381.585 877.369C382.802 876.153 384.452 875.47 386.172 875.47V875.47Z" stroke="#1E223B" stroke-width="2" stroke-linecap="round" stroke-linejoin="round"/>
<path opacity="0.2" d="M430.744 868.334C433.491 868.334 435.717 866.107 435.717 863.361C435.717 860.614 433.491 858.388 430.744 858.388C427.997 858.388 425.771 860.614 425.771 863.361C425.771 866.107 427.997 868.334 430.744 868.334Z" fill="#1E223B"/>
<path d="M430.744 868.334C433.491 868.334 435.717 866.107 435.717 863.361C435.717 860.614 433.491 858.388 430.744 858.388C427.997 858.388 425.771 860.614 425.771 863.361C425.771 866.107 427.997 868.334 430.744 868.334Z" stroke="#1E223B" stroke-width="2" stroke-linecap="round" stroke-linejoin="round"/>
<path d="M468.637 767.759L469.936 768.509C471.314 769.304 472.32 770.615 472.732 772.152C473.144 773.689 472.928 775.327 472.132 776.705L446.632 820.872L434.941 814.122L460.441 769.955C461.237 768.577 462.547 767.571 464.084 767.159C465.621 766.748 467.259 766.963 468.637 767.759V767.759Z" fill="#F2A197"/>
<path d="M468.637 767.759L469.936 768.509C471.314 769.304 472.32 770.615 472.732 772.152C473.144 773.689 472.928 775.327 472.132 776.705L446.632 820.872L434.941 814.122L460.441 769.955C461.237 768.577 462.547 767.571 464.084 767.159C465.621 766.748 467.259 766.963 468.637 767.759V767.759Z" stroke="#1E223B" stroke-width="2" stroke-linecap="round" stroke-linejoin="round"/>
<path d="M444.065 705.455H442.565C440.974 705.455 439.448 706.087 438.322 707.212C437.197 708.337 436.565 709.864 436.565 711.455V756.455C436.565 757.251 436.249 758.014 435.686 758.576C435.124 759.139 434.361 759.455 433.565 759.455V759.455C432.769 759.455 432.006 759.139 431.444 758.576C430.881 758.014 430.565 757.251 430.565 756.455V702.755C430.565 701.164 429.933 699.637 428.808 698.512C427.682 697.387 426.156 696.755 424.565 696.755H423.065C421.474 696.755 419.948 697.387 418.822 698.512C417.697 699.637 417.065 701.164 417.065 702.755V756.455C417.065 757.251 416.749 758.014 416.186 758.576C415.624 759.139 414.861 759.455 414.065 759.455V759.455C413.269 759.455 412.506 759.139 411.944 758.576C411.381 758.014 411.065 757.251 411.065 756.455V711.455C411.065 709.864 410.433 708.337 409.308 707.212C408.182 706.087 406.656 705.455 405.065 705.455H403.565C401.974 705.455 400.448 706.087 399.322 707.212C398.197 708.337 397.565 709.864 397.565 711.455V756.455C397.565 757.251 397.249 758.014 396.686 758.576C396.124 759.139 395.361 759.455 394.565 759.455V759.455C393.769 759.455 393.006 759.139 392.444 758.576C391.881 758.014 391.565 757.251 391.565 756.455V725.705C391.565 724.114 390.933 722.587 389.808 721.462C388.682 720.337 387.156 719.705 385.565 719.705H384.065C382.474 719.705 380.948 720.337 379.822 721.462C378.697 722.587 378.065 724.114 378.065 725.705V813.95C378.065 817.132 379.329 820.185 381.58 822.435C383.83 824.686 386.882 825.95 390.065 825.95H438.065C441.248 825.95 444.3 824.686 446.55 822.435C448.801 820.185 450.065 817.132 450.065 813.95V711.456C450.065 710.668 449.91 709.888 449.609 709.159C449.307 708.431 448.865 707.77 448.308 707.213C447.751 706.655 447.089 706.213 446.361 705.912C445.633 705.61 444.853 705.455 444.065 705.455V705.455Z" fill="#FDB3A6"/>
<path d="M444.065 705.455H442.565C440.974 705.455 439.448 706.087 438.322 707.212C437.197 708.337 436.565 709.864 436.565 711.455V756.455C436.565 757.251 436.249 758.014 435.686 758.576C435.124 759.139 434.361 759.455 433.565 759.455V759.455C432.769 759.455 432.006 759.139 431.444 758.576C430.881 758.014 430.565 757.251 430.565 756.455V702.755C430.565 701.164 429.933 699.637 428.808 698.512C427.682 697.387 426.156 696.755 424.565 696.755H423.065C421.474 696.755 419.948 697.387 418.822 698.512C417.697 699.637 417.065 701.164 417.065 702.755V756.455C417.065 757.251 416.749 758.014 416.186 758.576C415.624 759.139 414.861 759.455 414.065 759.455V759.455C413.269 759.455 412.506 759.139 411.944 758.576C411.381 758.014 411.065 757.251 411.065 756.455V711.455C411.065 709.864 410.433 708.337 409.308 707.212C408.182 706.087 406.656 705.455 405.065 705.455H403.565C401.974 705.455 400.448 706.087 399.322 707.212C398.197 708.337 397.565 709.864 397.565 711.455V756.455C397.565 757.251 397.249 758.014 396.686 758.576C396.124 759.139 395.361 759.455 394.565 759.455V759.455C393.769 759.455 393.006 759.139 392.444 758.576C391.881 758.014 391.565 757.251 391.565 756.455V725.705C391.565 724.114 390.933 722.587 389.808 721.462C388.682 720.337 387.156 719.705 385.565 719.705H384.065C382.474 719.705 380.948 720.337 379.822 721.462C378.697 722.587 378.065 724.114 378.065 725.705V813.95C378.065 817.132 379.329 820.185 381.58 822.435C383.83 824.686 386.882 825.95 390.065 825.95H438.065C441.248 825.95 444.3 824.686 446.55 822.435C448.801 820.185 450.065 817.132 450.065 813.95V711.456C450.065 710.668 449.91 709.888 449.609 709.159C449.307 708.431 448.865 707.77 448.308 707.213C447.751 706.655 447.089 706.213 446.361 705.912C445.633 705.61 444.853 705.455 444.065 705.455V705.455Z" stroke="#1E223B" stroke-width="2" stroke-linecap="round" stroke-linejoin="round"/>
<path d="M545.002 907.886H501.002V947.886H545.002V907.886Z" fill="#F2A197"/>
<path d="M545.002 907.886H501.002V947.886H545.002V907.886Z" stroke="#1E223B" stroke-width="2" stroke-linecap="round" stroke-linejoin="round"/>
<path d="M500.993 902.404L489.301 909.154L463.801 864.987C463.006 863.609 462.79 861.971 463.202 860.434C463.614 858.897 464.62 857.586 465.998 856.791L467.297 856.041C468.675 855.245 470.312 855.03 471.85 855.441C473.387 855.853 474.697 856.859 475.493 858.237L500.993 902.404Z" fill="#F2A197"/>
<path d="M500.993 902.404L489.301 909.154L463.801 864.987C463.006 863.609 462.79 861.971 463.202 860.434C463.614 858.897 464.62 857.586 465.998 856.791L467.297 856.041C468.675 855.245 470.312 855.03 471.85 855.441C473.387 855.853 474.697 856.859 475.493 858.237L500.993 902.404Z" stroke="#1E223B" stroke-width="2" stroke-linecap="round" stroke-linejoin="round"/>
<path d="M493 793.737H494.5C496.091 793.737 497.617 794.369 498.743 795.495C499.868 796.62 500.5 798.146 500.5 799.737V844.737C500.5 845.533 500.816 846.296 501.379 846.859C501.941 847.421 502.704 847.737 503.5 847.737C504.296 847.737 505.059 847.421 505.621 846.859C506.184 846.296 506.5 845.533 506.5 844.737V837.565C506.5 835.974 507.132 834.448 508.257 833.323C509.383 832.197 510.909 831.565 512.5 831.565H514C515.591 831.565 517.117 832.197 518.243 833.323C519.368 834.448 520 835.974 520 837.565V844.737C520 845.533 520.316 846.296 520.879 846.859C521.441 847.421 522.204 847.737 523 847.737C523.796 847.737 524.559 847.421 525.121 846.859C525.684 846.296 526 845.533 526 844.737V837.565C526 835.974 526.632 834.448 527.757 833.323C528.883 832.197 530.409 831.565 532 831.565H533.5C535.091 831.565 536.617 832.197 537.743 833.323C538.868 834.448 539.5 835.974 539.5 837.565V844.737C539.5 845.533 539.816 846.296 540.379 846.859C540.941 847.421 541.704 847.737 542.5 847.737C543.296 847.737 544.059 847.421 544.621 846.859C545.184 846.296 545.5 845.533 545.5 844.737V837.565C545.5 835.974 546.132 834.448 547.257 833.323C548.383 832.197 549.909 831.565 551.5 831.565H553C554.591 831.565 556.117 832.197 557.243 833.323C558.368 834.448 559 835.974 559 837.565V902.232C559 905.415 557.736 908.467 555.485 910.718C553.235 912.968 550.183 914.232 547 914.232H499C495.817 914.232 492.765 912.968 490.515 910.718C488.264 908.467 487 905.415 487 902.232V799.738C487 798.95 487.155 798.17 487.456 797.442C487.758 796.714 488.2 796.052 488.757 795.495C489.314 794.938 489.976 794.496 490.704 794.194C491.432 793.893 492.212 793.737 493 793.737Z" fill="#FDB3A6"/>
<path d="M493 793.737H494.5C496.091 793.737 497.617 794.369 498.743 795.495C499.868 796.62 500.5 798.146 500.5 799.737V844.737C500.5 845.533 500.816 846.296 501.379 846.859C501.941 847.421 502.704 847.737 503.5 847.737C504.296 847.737 505.059 847.421 505.621 846.859C506.184 846.296 506.5 845.533 506.5 844.737V837.565C506.5 835.974 507.132 834.448 508.257 833.323C509.383 832.197 510.909 831.565 512.5 831.565H514C515.591 831.565 517.117 832.197 518.243 833.323C519.368 834.448 520 835.974 520 837.565V844.737C520 845.533 520.316 846.296 520.879 846.859C521.441 847.421 522.204 847.737 523 847.737C523.796 847.737 524.559 847.421 525.121 846.859C525.684 846.296 526 845.533 526 844.737V837.565C526 835.974 526.632 834.448 527.757 833.323C528.883 832.197 530.409 831.565 532 831.565H533.5C535.091 831.565 536.617 832.197 537.743 833.323C538.868 834.448 539.5 835.974 539.5 837.565V844.737C539.5 845.533 539.816 846.296 540.379 846.859C540.941 847.421 541.704 847.737 542.5 847.737C543.296 847.737 544.059 847.421 544.621 846.859C545.184 846.296 545.5 845.533 545.5 844.737V837.565C545.5 835.974 546.132 834.448 547.257 833.323C548.383 832.197 549.909 831.565 551.5 831.565H553C554.591 831.565 556.117 832.197 557.243 833.323C558.368 834.448 559 835.974 559 837.565V902.232C559 905.415 557.736 908.467 555.485 910.718C553.235 912.968 550.183 914.232 547 914.232H499C495.817 914.232 492.765 912.968 490.515 910.718C488.264 908.467 487 905.415 487 902.232V799.738C487 798.95 487.155 798.17 487.456 797.442C487.758 796.714 488.2 796.052 488.757 795.495C489.314 794.938 489.976 794.496 490.704 794.194C491.432 793.893 492.212 793.737 493 793.737Z" stroke="#1E223B" stroke-width="2" stroke-linecap="round" stroke-linejoin="round"/>
<path d="M548.951 938.886H497.053V964.4H548.951V938.886Z" fill="white"/>
<path d="M548.951 938.886H497.053V964.4H548.951V938.886Z" stroke="#1E223B" stroke-width="2" stroke-linecap="round" stroke-linejoin="round"/>
<path d="M495.11 963.752H550.894C552.614 963.752 554.264 964.435 555.481 965.652C556.698 966.868 557.381 968.518 557.381 970.239V1000.5H488.624V970.238C488.624 968.518 489.308 966.868 490.524 965.652C491.74 964.436 493.39 963.752 495.11 963.752V963.752Z" fill="#1E223B"/>
<path d="M495.11 963.752H550.894C552.614 963.752 554.264 964.435 555.481 965.652C556.698 966.868 557.381 968.518 557.381 970.239V1000.5H488.624V970.238C488.624 968.518 489.308 966.868 490.524 965.652C491.74 964.436 493.39 963.752 495.11 963.752V963.752Z" stroke="#1E223B" stroke-width="2" stroke-linecap="round" stroke-linejoin="round"/>
<path d="M508.029 956.616C510.776 956.616 513.002 954.389 513.002 951.643C513.002 948.896 510.776 946.67 508.029 946.67C505.282 946.67 503.056 948.896 503.056 951.643C503.056 954.389 505.282 956.616 508.029 956.616Z" stroke="#1E223B" stroke-width="2" stroke-linecap="round" stroke-linejoin="round"/>
<path opacity="0.2" d="M508.029 956.616C510.776 956.616 513.002 954.389 513.002 951.643C513.002 948.896 510.776 946.67 508.029 946.67C505.282 946.67 503.056 948.896 503.056 951.643C503.056 954.389 505.282 956.616 508.029 956.616Z" fill="#1E223B"/>
<path d="M525 205H579" stroke="#1E223B" stroke-width="3" stroke-linecap="round" stroke-linejoin="round"/>
<path d="M525 218.5H567" stroke="#1E223B" stroke-width="3" stroke-linecap="round" stroke-linejoin="round"/>
<path d="M525 232H549" stroke="#1E223B" stroke-width="3" stroke-linecap="round" stroke-linejoin="round"/>
<path d="M597.213 148.5H624.213" stroke="#1E223B" stroke-width="3" stroke-linecap="round" stroke-linejoin="round"/>
<path d="M597.213 155.5H614.213" stroke="#1E223B" stroke-width="3" stroke-linecap="round" stroke-linejoin="round"/>
<path d="M596.584 219.629H599.584" stroke="#1E223B" stroke-width="2" stroke-linecap="round" stroke-linejoin="round"/>
<path d="M607.522 219.629H629.736C640.282 219.629 650.396 223.818 657.853 231.276C665.311 238.733 669.5 248.847 669.5 259.393V259.393C669.5 264.615 668.471 269.786 666.473 274.61C664.475 279.434 661.546 283.818 657.853 287.51C654.161 291.203 649.777 294.132 644.953 296.13C640.129 298.128 634.958 299.157 629.736 299.157H564.172C558.306 299.157 552.497 300.312 547.077 302.557C541.657 304.802 536.732 308.092 532.584 312.24C528.436 316.388 525.145 321.313 522.9 326.733C520.655 332.153 519.5 337.962 519.5 343.828V348.768" stroke="#1E223B" stroke-width="2" stroke-linecap="round" stroke-linejoin="round" stroke-dasharray="5.95 7.94"/>
<path d="M519.5 352.737V355.737" stroke="#1E223B" stroke-width="2" stroke-linecap="round" stroke-linejoin="round"/>
<path d="M224.357 467.84H349.899" stroke="#1E223B" stroke-width="2" stroke-linecap="round" stroke-linejoin="round" stroke-dasharray="6 8"/>
<path d="M221.137 694.726H247.387C259.352 694.726 270.826 689.973 279.287 681.513C287.747 673.053 292.5 661.578 292.5 649.613V630.619C292.5 618.716 297.229 607.3 305.645 598.883C314.062 590.466 325.478 585.738 337.381 585.737H351.5" stroke="#1E223B" stroke-width="2" stroke-linecap="round" stroke-linejoin="round"/>
<path d="M354.292 222.858H367.848C377.304 222.859 386.372 226.615 393.058 233.301C399.744 239.987 403.5 249.056 403.5 258.511V258.511C403.5 263.193 404.422 267.829 406.214 272.155C408.006 276.481 410.632 280.411 413.943 283.722C417.253 287.032 421.184 289.658 425.509 291.45C429.835 293.241 434.471 294.164 439.153 294.163H458.848C468.304 294.164 477.372 297.92 484.058 304.606C490.744 311.292 494.5 320.361 494.5 329.816V355.737" stroke="#1E223B" stroke-width="2" stroke-linecap="round" stroke-linejoin="round" stroke-dasharray="6 8"/>
<path d="M669.5 460.732H722.032C726.598 460.732 731.119 459.834 735.337 458.087C739.555 456.34 743.388 453.779 746.616 450.551C749.845 447.323 752.406 443.49 754.153 439.272C755.901 435.054 756.8 430.533 756.8 425.968V333.922" stroke="#1E223B" stroke-width="2" stroke-linecap="round" stroke-linejoin="round"/>
<path d="M887.156 765.247C904.006 765.247 917.666 751.587 917.666 734.737C917.666 717.886 904.006 704.227 887.156 704.227C870.306 704.227 856.646 717.886 856.646 734.737C856.646 751.587 870.306 765.247 887.156 765.247Z" stroke="#1E223B" stroke-width="2" stroke-linecap="round" stroke-linejoin="round"/>
<path d="M669.5 521.419H857.75" stroke="#1E223B" stroke-width="2" stroke-linecap="round" stroke-linejoin="round" stroke-dasharray="6 8"/>
<path d="M859.373 787.5C878.917 787.5 894.76 771.656 894.76 752.113C894.76 732.569 878.917 716.726 859.373 716.726C839.829 716.726 823.986 732.569 823.986 752.113C823.986 771.656 839.829 787.5 859.373 787.5Z" fill="white"/>
<path d="M859.373 787.5C878.917 787.5 894.76 771.656 894.76 752.113C894.76 732.569 878.917 716.726 859.373 716.726C839.829 716.726 823.986 732.569 823.986 752.113C823.986 771.656 839.829 787.5 859.373 787.5Z" stroke="#1E223B" stroke-width="2" stroke-linecap="round" stroke-linejoin="round"/>
<path d="M823.986 752.113H669.5" stroke="#1E223B" stroke-width="2" stroke-linecap="round" stroke-linejoin="round" stroke-dasharray="6 8"/>
<path opacity="0.39" d="M677 150.5C681.142 150.5 684.5 147.142 684.5 143C684.5 138.858 681.142 135.5 677 135.5C672.858 135.5 669.5 138.858 669.5 143C669.5 147.142 672.858 150.5 677 150.5Z" fill="white"/>
<path d="M677 150.5C681.142 150.5 684.5 147.142 684.5 143C684.5 138.858 681.142 135.5 677 135.5C672.858 135.5 669.5 138.858 669.5 143C669.5 147.142 672.858 150.5 677 150.5Z" stroke="#1E223B" stroke-width="2" stroke-linecap="round" stroke-linejoin="round"/>
<path d="M844.256 784.114L859.373 752.113L894.355 757.482" stroke="#1E223B" stroke-width="2" stroke-linecap="round" stroke-linejoin="round"/>
<path d="M848.069 683.121H778.075C773.081 683.121 769.033 687.169 769.033 692.163V719.288C769.033 724.282 773.081 728.33 778.075 728.33H848.069C853.063 728.33 857.111 724.282 857.111 719.288V692.163C857.111 687.169 853.063 683.121 848.069 683.121Z" fill="#F73E59"/>
<path d="M848.069 683.121H778.075C773.081 683.121 769.033 687.169 769.033 692.163V719.288C769.033 724.282 773.081 728.33 778.075 728.33H848.069C853.063 728.33 857.111 724.282 857.111 719.288V692.163C857.111 687.169 853.063 683.121 848.069 683.121Z" stroke="#1E223B" stroke-width="2" stroke-linecap="round" stroke-linejoin="round"/>
<path d="M780.455 713.631L782.59 710.689C783.457 711.636 784.512 712.392 785.687 712.909C786.862 713.427 788.131 713.695 789.415 713.696C792.515 713.696 793.715 712.176 793.715 710.721C793.715 706.193 781.167 709.007 781.167 701.083C781.167 697.493 784.267 694.743 789.026 694.743C790.503 694.692 791.975 694.934 793.357 695.456C794.74 695.978 796.005 696.769 797.08 697.783L794.945 700.597C794.114 699.79 793.132 699.154 792.056 698.727C790.979 698.3 789.828 698.089 788.67 698.108C786.47 698.108 785.048 699.208 785.048 700.792C785.048 704.834 797.598 702.344 797.598 710.365C797.598 713.955 795.042 717.059 789.253 717.059C787.629 717.124 786.01 716.853 784.496 716.263C782.982 715.673 781.606 714.777 780.455 713.631Z" fill="white"/>
<path d="M802.546 705.9C802.546 699.465 807.107 694.742 813.576 694.742C820.011 694.742 824.604 699.465 824.604 705.9C824.661 708.759 823.632 711.534 821.725 713.664L823.504 715.664L820.885 717.864L819.009 715.764C817.331 716.634 815.466 717.078 813.576 717.057C807.107 717.059 802.546 712.338 802.546 705.9ZM816.615 713.049L813.931 710.008L816.583 707.808L819.267 710.847C820.252 709.388 820.761 707.659 820.723 705.898C820.723 701.436 817.909 698.105 813.576 698.105C809.209 698.105 806.427 701.436 806.427 705.898C806.427 710.33 809.209 713.698 813.576 713.698C814.624 713.708 815.662 713.487 816.615 713.05V713.049Z" fill="white"/>
<path d="M830.4 716.672V695.1H834.184V713.342H843.692V716.673L830.4 716.672Z" fill="white"/>
<path d="M270.383 242.869H163.708C157.749 242.869 152.918 247.7 152.918 253.659V284.28C152.918 290.239 157.749 295.07 163.708 295.07H270.383C276.342 295.07 281.173 290.239 281.173 284.28V253.659C281.173 247.7 276.342 242.869 270.383 242.869Z" fill="#E44D26" stroke="#1E223B" stroke-width="2" stroke-miterlimit="10"/>
<path d="M270.383 242.869H163.708C157.749 242.869 152.918 247.7 152.918 253.659V284.28C152.918 290.239 157.749 295.07 163.708 295.07H270.383C276.342 295.07 281.173 290.239 281.173 284.28V253.659C281.173 247.7 276.342 242.869 270.383 242.869Z" stroke="#1E223B" stroke-width="2" stroke-linecap="round" stroke-linejoin="round"/>
<path d="M184.5 280.8V270.442H172.194V280.8H168.044V257.141H172.194V266.788H184.5V257.141H188.65V280.8H184.5Z" fill="white"/>
<path d="M201.989 280.8V260.8H194.824V257.147H213.3V260.8H206.135V280.8H201.989Z" fill="white"/>
<path d="M239.906 280.8V262.532L232.67 280.8H230.9L223.63 262.534V280.8H219.48V257.141H225.332L231.788 273.386L238.207 257.141H244.059V280.8H239.906Z" fill="white"/>
<path d="M251.47 280.8V257.141H255.619V277.141H266.047V280.8H251.47Z" fill="white"/>
</svg>
